<?xml version="1.0" standalone="no"?>
<!DOCTYPE svg PUBLIC "-//W3C//DTD SVG 20010904//EN"
 "http://www.w3.org/TR/2001/REC-SVG-20010904/DTD/svg10.dtd">
<svg version="1.0" xmlns="http://www.w3.org/2000/svg"
 width="920.000000pt" height="852.000000pt" viewBox="0 0 920.000000 852.000000"
 preserveAspectRatio="xMidYMid meet">

<g transform="translate(0.000000,852.000000) scale(0.100000,-0.100000)"
fill="#000000" stroke="none">
<path d="M4385 8494 c-132 -9 -370 -35 -482 -54 -632 -107 -1245 -361 -1757
-728 -95 -69 -310 -242 -386 -312 l-55 -50 30 -26 c111 -94 387 -294 398 -288
6 4 41 33 77 64 359 312 964 647 1444 799 238 76 529 136 786 162 162 17 580
17 740 0 839 -88 1585 -422 2206 -989 588 -536 1000 -1270 1158 -2062 110
-552 90 -1190 -55 -1720 -245 -895 -787 -1655 -1544 -2169 -524 -355 -1106
-568 -1747 -637 -204 -22 -580 -22 -786 0 -941 101 -1806 494 -2411 1095 -336
334 -622 754 -810 1191 -64 151 -163 440 -156 458 3 7 2 25 -1 39 -5 19 -9 22
-16 11 -6 -9 -7 -6 -3 9 3 12 -3 57 -14 100 -36 141 -71 345 -90 518 -18 163
-21 175 -71 295 -148 357 -249 757 -283 1125 l-13 140 -41 -170 c-94 -385
-125 -636 -125 -1020 0 -251 10 -402 42 -620 112 -766 431 -1481 927 -2082
120 -145 383 -411 518 -524 576 -484 1244 -801 1965 -933 500 -91 1040 -91
1540 0 1687 310 3028 1626 3370 3309 35 168 66 402 74 550 3 55 8 145 11 200
12 218 -25 647 -81 925 -218 1094 -869 2066 -1799 2687 -572 383 -1218 615
-1912 688 -145 15 -529 26 -648 19z"/>
<path d="M6020 7413 c-330 -299 -500 -696 -526 -1230 -16 -316 56 -760 185
-1152 23 -68 41 -125 41 -126 0 -1 -132 -5 -292 -8 -163 -3 -346 -13 -413 -21
-912 -115 -1538 -497 -1860 -1136 l-37 -74 48 42 c87 75 266 208 368 272 552
347 1130 456 1651 310 209 -59 447 -178 630 -315 44 -33 136 -115 205 -182
l125 -123 50 26 c151 79 289 191 389 316 75 94 161 232 202 326 23 53 25 67
15 88 -6 14 -115 192 -242 395 -126 203 -257 418 -290 477 -191 341 -313 668
-375 1007 -29 154 -26 542 4 678 40 181 114 368 179 455 37 49 14 39 -57 -25z"/>
<path d="M4665 6179 c-86 -12 -214 -78 -280 -144 -342 -342 -107 -935 371
-935 149 0 286 59 384 167 228 249 180 645 -101 832 -103 69 -245 99 -374 80z"/>
<path d="M2237 5002 c-13 -338 -46 -641 -103 -937 -14 -71 -67 -299 -119 -505
-141 -568 -174 -777 -175 -1089 l0 -184 57 -71 c83 -104 352 -370 468 -462
152 -121 351 -261 360 -252 2 2 -6 35 -17 73 -17 56 -21 100 -22 225 -1 168
13 239 71 355 125 249 462 504 843 636 52 18 -126 -3 -215 -26 -340 -86 -700
-340 -984 -695 -46 -58 -88 -106 -92 -108 -11 -4 -55 142 -81 270 -19 89 -22
137 -22 353 -1 272 1 289 74 820 54 389 68 534 74 770 8 308 -28 692 -87 935
l-23 95 -7 -203z"/>
<path d="M6865 4197 c-74 -149 -219 -335 -343 -440 -83 -69 -209 -155 -260
-176 -18 -8 -32 -17 -32 -22 0 -5 20 -39 44 -76 102 -159 186 -364 228 -557
19 -85 22 -133 23 -306 0 -232 -16 -338 -81 -536 -69 -211 -243 -531 -371
-682 l-45 -53 88 52 c139 81 359 230 479 325 141 113 426 398 538 539 48 61
129 171 179 245 l91 134 -6 166 c-9 283 -65 518 -204 860 -55 136 -267 563
-287 579 -7 5 -21 -13 -41 -52z"/>
</g>
</svg>
