<svg id="svg" version="1.1" xmlns="http://www.w3.org/2000/svg" xmlns:xlink="http://www.w3.org/1999/xlink" width="400" height="370.4347826086956" viewBox="0, 0, 400,370.4347826086956"><g id="svgg"><path id="path0" d="M188.693 1.102 C 176.326 1.994,174.289 2.208,174.020 2.644 C 173.910 2.821,173.289 2.965,172.638 2.965 C 170.673 2.963,161.834 4.532,161.576 4.928 C 161.444 5.132,161.047 5.187,160.695 5.052 C 160.343 4.917,159.867 4.952,159.638 5.130 C 159.409 5.307,157.386 5.830,155.144 6.291 C 152.901 6.753,150.899 7.263,150.695 7.426 C 150.491 7.588,148.493 8.162,146.255 8.701 C 144.017 9.240,142.099 9.802,141.992 9.949 C 141.885 10.097,140.297 10.694,138.462 11.276 C 136.627 11.859,134.943 12.478,134.720 12.652 C 134.498 12.826,133.300 13.293,132.058 13.689 C 129.585 14.480,127.552 15.395,119.146 19.505 C 116.066 21.011,113.355 22.243,113.122 22.243 C 112.888 22.243,112.697 22.380,112.697 22.548 C 112.697 22.716,111.905 23.240,110.936 23.714 C 108.565 24.874,105.653 26.747,105.653 27.113 C 105.653 27.276,105.403 27.314,105.097 27.196 C 104.791 27.079,104.541 27.140,104.541 27.333 C 104.541 27.525,103.595 28.161,102.439 28.746 C 101.283 29.331,99.924 30.192,99.420 30.660 C 98.915 31.128,98.293 31.511,98.039 31.511 C 97.784 31.511,97.183 31.925,96.702 32.431 C 96.222 32.937,95.673 33.354,95.482 33.358 C 95.291 33.361,94.179 34.115,93.011 35.032 C 91.843 35.950,90.701 36.701,90.474 36.701 C 90.246 36.701,89.965 36.948,89.850 37.249 C 89.734 37.551,89.030 38.166,88.286 38.617 C 86.951 39.425,86.655 39.662,84.216 41.881 C 83.538 42.498,82.896 43.003,82.790 43.003 C 82.622 43.003,79.246 45.873,76.905 48.007 C 76.458 48.415,75.641 49.123,75.090 49.580 C 73.972 50.506,73.959 51.427,75.055 52.046 C 75.454 52.271,76.092 52.831,76.472 53.290 C 76.851 53.749,77.391 54.124,77.670 54.124 C 77.950 54.124,78.397 54.423,78.663 54.788 C 78.929 55.153,79.731 55.855,80.445 56.348 C 81.158 56.842,81.960 57.544,82.227 57.909 C 82.493 58.274,82.875 58.573,83.074 58.573 C 83.476 58.573,87.980 61.863,89.170 63.026 C 89.585 63.431,90.072 63.763,90.253 63.763 C 90.433 63.763,90.867 64.021,91.215 64.337 C 92.058 65.099,93.547 64.710,94.631 63.444 C 95.092 62.906,96.097 61.995,96.863 61.420 C 97.629 60.846,98.662 59.970,99.158 59.474 C 99.653 58.978,100.233 58.573,100.447 58.573 C 100.660 58.573,100.834 58.305,100.834 57.977 C 100.834 57.635,101.043 57.462,101.324 57.569 C 101.594 57.673,102.012 57.440,102.254 57.053 C 102.496 56.665,102.933 56.348,103.226 56.348 C 103.518 56.348,103.976 56.056,104.242 55.698 C 104.689 55.099,107.636 53.012,108.036 53.012 C 108.132 53.012,108.678 52.574,109.249 52.040 C 109.820 51.505,110.746 50.905,111.306 50.706 C 111.867 50.507,112.242 50.211,112.141 50.046 C 112.039 49.882,112.415 49.573,112.975 49.359 C 114.233 48.879,115.947 47.849,116.922 46.988 C 117.326 46.631,117.875 46.339,118.142 46.339 C 118.410 46.339,118.939 46.028,119.320 45.648 C 119.700 45.268,120.988 44.510,122.181 43.963 C 123.375 43.417,124.440 42.838,124.548 42.677 C 124.745 42.385,128.775 40.408,129.174 40.408 C 129.291 40.408,129.874 39.949,130.471 39.388 C 132.053 37.903,139.280 34.348,146.615 31.448 C 148.655 30.641,151.075 29.680,151.993 29.313 C 179.834 18.161,219.542 16.212,250.788 24.466 C 259.369 26.732,276.179 32.719,277.845 34.102 C 278.053 34.274,279.056 34.744,280.075 35.146 C 281.094 35.548,284.013 37.004,286.562 38.382 C 400.377 99.900,404.662 259.772,294.296 326.996 C 222.186 370.918,120.900 351.236,70.958 283.596 C 59.677 268.318,47.018 242.916,45.850 233.218 C 45.742 232.322,45.499 231.488,45.309 231.365 C 44.930 231.118,44.294 228.504,44.398 227.618 C 44.434 227.312,44.134 225.445,43.733 223.469 C 43.331 221.493,43.003 219.523,43.003 219.091 C 43.003 218.660,42.862 218.394,42.689 218.500 C 42.399 218.680,40.764 208.823,40.774 206.951 C 40.776 206.492,40.635 206.117,40.459 206.117 C 40.148 206.117,39.936 204.300,39.443 197.405 C 39.216 194.235,38.433 190.949,37.808 190.547 C 37.650 190.445,37.074 189.029,36.528 187.401 C 35.982 185.773,35.405 184.355,35.247 184.250 C 34.947 184.052,32.994 178.028,32.994 177.304 C 32.994 177.077,32.835 176.837,32.641 176.769 C 32.447 176.701,31.840 174.893,31.292 172.753 C 30.744 170.612,30.176 168.777,30.030 168.675 C 29.884 168.573,29.628 167.822,29.461 167.006 C 29.295 166.191,29.136 165.440,29.108 165.338 C 29.080 165.236,28.827 164.152,28.546 162.929 C 28.265 161.705,27.925 160.621,27.790 160.519 C 27.523 160.316,26.076 151.824,25.706 148.288 C 25.580 147.074,25.357 146.155,25.211 146.245 C 24.919 146.425,24.089 138.104,24.094 135.032 C 24.097 132.781,23.507 132.440,23.133 134.476 C 22.992 135.241,22.765 135.950,22.627 136.052 C 22.352 136.255,20.389 145.119,20.389 146.157 C 20.389 146.512,20.255 146.803,20.090 146.803 C 19.772 146.803,18.826 152.369,18.105 158.480 C 17.865 160.519,17.551 162.271,17.408 162.373 C 15.939 163.419,15.941 206.229,17.411 207.229 C 17.560 207.331,17.882 209.249,18.125 211.492 C 18.690 216.702,19.567 222.032,20.017 222.984 C 20.209 223.392,20.724 225.561,21.161 227.804 C 22.258 233.436,22.322 233.710,22.587 233.920 C 22.716 234.022,23.290 235.940,23.864 238.183 C 24.438 240.426,25.024 242.344,25.167 242.446 C 25.310 242.548,25.901 244.259,26.481 246.247 C 27.062 248.234,27.640 249.861,27.766 249.861 C 27.892 249.861,28.410 251.196,28.916 252.827 C 29.422 254.458,29.942 255.792,30.072 255.792 C 30.202 255.792,30.511 256.335,30.759 256.997 C 31.634 259.335,32.419 261.170,32.624 261.353 C 32.738 261.455,33.311 262.748,33.898 264.226 C 34.485 265.704,35.079 266.914,35.218 266.914 C 35.357 266.914,35.941 268.082,36.515 269.509 C 37.090 270.936,37.660 272.104,37.782 272.104 C 37.904 272.104,38.420 273.017,38.928 274.133 C 39.436 275.249,39.983 276.166,40.143 276.172 C 40.303 276.177,40.743 276.901,41.119 277.780 C 41.496 278.660,42.033 279.624,42.311 279.923 C 43.014 280.678,44.075 282.472,44.540 283.689 C 44.754 284.249,45.067 284.708,45.236 284.708 C 45.405 284.708,45.775 285.167,46.058 285.728 C 47.044 287.679,47.640 288.602,48.103 288.898 C 48.359 289.062,48.905 289.855,49.315 290.659 C 49.726 291.464,50.214 292.122,50.400 292.122 C 50.586 292.122,50.838 292.437,50.960 292.822 C 51.082 293.207,51.552 293.931,52.004 294.431 C 53.072 295.612,54.495 297.587,54.495 297.890 C 54.495 298.020,54.954 298.606,55.514 299.191 C 56.075 299.776,57.034 300.853,57.646 301.585 C 58.258 302.317,59.217 303.419,59.778 304.035 C 60.338 304.651,60.797 305.261,60.797 305.390 C 60.797 305.647,61.324 306.205,69.528 314.643 C 72.551 317.753,75.140 320.297,75.281 320.297 C 75.422 320.297,76.600 321.304,77.899 322.536 C 79.197 323.767,80.781 325.207,81.418 325.734 C 82.054 326.261,83.186 327.255,83.932 327.943 C 84.678 328.631,85.426 329.194,85.593 329.194 C 85.760 329.194,86.306 329.569,86.805 330.028 C 88.315 331.415,90.380 332.901,90.800 332.901 C 91.018 332.901,91.196 333.054,91.196 333.241 C 91.196 333.429,91.815 333.965,92.572 334.433 C 93.329 334.901,94.247 335.581,94.611 335.946 C 94.975 336.310,95.416 336.608,95.590 336.608 C 95.764 336.608,96.319 336.983,96.824 337.442 C 97.328 337.901,98.687 338.763,99.843 339.357 C 101.000 339.952,101.946 340.565,101.946 340.719 C 101.946 340.874,102.897 341.472,104.060 342.048 C 105.222 342.624,106.473 343.387,106.840 343.744 C 107.207 344.101,107.726 344.393,107.993 344.393 C 108.261 344.393,108.804 344.685,109.202 345.042 C 109.599 345.399,110.923 346.178,112.144 346.775 C 113.366 347.371,114.449 347.978,114.551 348.123 C 114.652 348.269,115.820 348.842,117.146 349.398 C 118.471 349.953,119.646 350.552,119.758 350.729 C 119.869 350.906,121.108 351.467,122.510 351.975 C 123.913 352.484,125.156 353.047,125.273 353.227 C 125.391 353.406,126.154 353.764,126.969 354.022 C 127.785 354.280,129.246 354.881,130.215 355.359 C 131.185 355.837,133.097 356.573,134.464 356.995 C 135.831 357.417,137.040 357.894,137.150 358.054 C 137.260 358.214,139.018 358.813,141.057 359.385 C 143.095 359.957,144.847 360.540,144.949 360.681 C 145.153 360.964,153.072 362.929,154.006 362.929 C 154.326 362.929,154.588 363.068,154.588 363.237 C 154.588 363.534,162.246 365.171,163.577 365.159 C 163.934 365.156,164.226 365.296,164.226 365.471 C 164.226 365.805,173.790 367.209,178.869 367.620 C 180.500 367.753,181.954 368.044,182.100 368.268 C 182.473 368.842,217.527 368.842,217.900 368.268 C 218.046 368.044,219.500 367.753,221.131 367.620 C 226.210 367.209,235.774 365.805,235.774 365.471 C 235.774 365.296,236.066 365.156,236.423 365.159 C 237.754 365.171,245.412 363.534,245.412 363.237 C 245.412 363.068,245.674 362.929,245.994 362.929 C 246.928 362.929,254.847 360.964,255.051 360.681 C 255.153 360.540,256.905 359.957,258.943 359.385 C 260.982 358.813,262.740 358.214,262.850 358.054 C 262.960 357.894,264.169 357.417,265.536 356.995 C 266.903 356.573,268.815 355.837,269.785 355.359 C 270.754 354.881,272.215 354.280,273.031 354.022 C 273.846 353.764,274.609 353.406,274.727 353.227 C 274.844 353.047,276.087 352.484,277.490 351.975 C 278.892 351.467,280.131 350.906,280.242 350.729 C 280.354 350.552,281.529 349.953,282.854 349.398 C 284.180 348.842,285.348 348.267,285.449 348.120 C 285.551 347.973,286.626 347.388,287.837 346.820 C 289.049 346.252,290.280 345.547,290.574 345.253 C 290.868 344.959,291.754 344.460,292.542 344.145 C 293.331 343.829,293.976 343.457,293.976 343.318 C 293.976 343.179,294.893 342.600,296.015 342.033 C 297.136 341.465,298.054 340.862,298.054 340.694 C 298.054 340.525,298.513 340.213,299.073 339.998 C 300.492 339.457,302.260 338.366,302.613 337.813 C 302.776 337.558,303.444 337.078,304.096 336.746 C 304.749 336.414,305.567 335.872,305.914 335.541 C 306.950 334.554,307.472 334.174,308.156 333.913 C 308.513 333.777,308.804 333.510,308.804 333.321 C 308.804 333.131,309.511 332.608,310.374 332.158 C 311.237 331.708,312.300 330.982,312.736 330.545 C 313.697 329.583,315.477 328.093,315.477 328.252 C 315.477 328.420,317.553 326.617,319.088 325.116 C 319.818 324.402,320.561 323.818,320.740 323.818 C 320.919 323.818,321.185 323.624,321.332 323.386 C 321.479 323.148,322.266 322.428,323.080 321.786 C 325.014 320.260,330.154 315.207,333.648 311.397 C 335.174 309.733,337.048 307.775,337.813 307.045 C 338.577 306.316,339.203 305.592,339.203 305.437 C 339.203 305.165,340.444 303.715,342.364 301.747 C 342.868 301.230,343.281 300.609,343.281 300.368 C 343.281 300.127,343.781 299.560,344.393 299.107 C 345.005 298.655,345.505 298.135,345.505 297.953 C 345.505 297.770,346.256 296.665,347.173 295.497 C 348.091 294.329,348.842 293.170,348.842 292.922 C 348.842 292.673,349.099 292.371,349.413 292.250 C 349.728 292.130,350.311 291.393,350.708 290.614 C 351.106 289.834,351.645 289.062,351.905 288.898 C 352.166 288.735,352.591 288.184,352.849 287.674 C 353.713 285.971,354.332 284.981,354.676 284.751 C 354.863 284.625,355.265 284.022,355.568 283.411 C 356.413 281.707,357.131 280.530,357.697 279.918 C 357.981 279.612,358.442 278.813,358.722 278.143 C 359.002 277.472,359.354 276.923,359.505 276.923 C 359.655 276.922,360.272 275.838,360.877 274.513 C 361.482 273.188,362.081 272.104,362.208 272.104 C 362.336 272.104,362.910 270.936,363.485 269.509 C 364.059 268.082,364.643 266.914,364.782 266.914 C 364.921 266.914,365.515 265.704,366.102 264.226 C 366.689 262.748,367.262 261.455,367.376 261.353 C 367.632 261.124,368.736 258.496,369.048 257.370 C 369.175 256.913,369.481 256.329,369.727 256.073 C 369.974 255.817,370.583 254.356,371.080 252.827 C 371.578 251.297,372.120 249.951,372.284 249.834 C 372.449 249.717,373.028 248.049,373.571 246.127 C 374.114 244.205,374.685 242.545,374.839 242.438 C 374.993 242.332,375.584 240.413,376.154 238.175 C 376.723 235.937,377.284 234.022,377.401 233.920 C 377.673 233.682,378.702 229.293,379.270 225.950 C 379.512 224.523,379.843 223.269,380.004 223.165 C 380.165 223.060,380.682 220.307,381.151 217.048 C 381.621 213.788,382.106 211.038,382.230 210.936 C 382.439 210.764,382.937 205.838,383.561 197.776 C 384.248 188.894,383.268 159.782,382.256 159.037 C 382.117 158.935,381.614 156.098,381.138 152.734 C 380.663 149.370,380.157 146.534,380.015 146.432 C 379.873 146.330,379.381 144.411,378.922 142.169 C 378.464 139.926,378.004 137.677,377.900 137.172 C 377.797 136.667,377.591 136.166,377.442 136.060 C 377.294 135.954,376.693 133.906,376.107 131.511 C 375.521 129.115,374.927 127.155,374.786 127.155 C 374.646 127.155,374.236 126.029,373.876 124.652 C 373.517 123.276,372.768 121.149,372.213 119.926 C 371.659 118.703,370.989 116.909,370.726 115.941 C 370.462 114.972,370.113 114.180,369.949 114.180 C 369.785 114.180,369.544 113.804,369.412 113.346 C 368.889 111.530,367.595 108.619,367.309 108.619 C 367.143 108.619,367.006 108.390,367.006 108.109 C 367.006 107.508,365.198 103.328,364.822 103.058 C 364.679 102.956,364.099 101.791,363.533 100.468 C 362.966 99.146,362.376 97.978,362.222 97.873 C 362.067 97.769,361.471 96.683,360.897 95.460 C 360.324 94.237,359.655 93.070,359.410 92.865 C 359.165 92.660,358.742 91.909,358.469 91.196 C 358.196 90.482,357.587 89.500,357.114 89.013 C 356.642 88.527,356.256 87.928,356.256 87.684 C 356.256 87.439,355.589 86.307,354.773 85.168 C 353.957 84.029,353.290 82.935,353.290 82.737 C 353.290 82.538,352.876 81.983,352.370 81.503 C 351.863 81.023,351.446 80.439,351.443 80.206 C 351.439 79.973,350.955 79.266,350.366 78.636 C 349.777 78.006,349.192 77.279,349.065 77.021 C 348.345 75.555,347.187 73.907,346.577 73.479 C 346.191 73.209,345.876 72.759,345.876 72.479 C 345.876 72.198,345.373 71.611,344.759 71.174 C 344.145 70.737,343.729 70.240,343.834 70.070 C 343.938 69.901,343.523 69.340,342.911 68.825 C 342.299 68.310,341.798 67.777,341.798 67.640 C 341.798 67.056,337.507 62.280,336.983 62.280 C 336.804 62.280,336.556 61.957,336.430 61.563 C 336.225 60.917,325.372 49.809,323.185 48.007 C 320.712 45.970,319.630 44.905,319.829 44.706 C 319.950 44.585,319.797 44.486,319.489 44.486 C 319.181 44.486,318.627 44.152,318.258 43.744 C 317.889 43.336,317.435 43.003,317.249 43.003 C 317.064 43.003,316.491 42.502,315.976 41.891 C 315.462 41.279,314.811 40.778,314.531 40.778 C 314.250 40.778,313.843 40.447,313.626 40.041 C 313.409 39.635,312.694 39.033,312.037 38.703 C 311.381 38.373,310.593 37.804,310.287 37.437 C 309.981 37.071,309.066 36.421,308.254 35.994 C 307.441 35.567,306.938 35.218,307.135 35.218 C 307.332 35.218,306.880 34.801,306.130 34.291 C 305.380 33.781,304.661 33.364,304.532 33.364 C 304.404 33.364,303.797 32.863,303.184 32.249 C 302.571 31.636,301.937 31.216,301.776 31.316 C 301.615 31.415,301.069 31.125,300.562 30.670 C 299.567 29.776,298.504 29.094,296.756 28.229 C 296.145 27.926,295.511 27.456,295.348 27.185 C 295.185 26.913,294.869 26.691,294.646 26.691 C 294.424 26.691,293.222 26.048,291.977 25.262 C 290.732 24.476,289.338 23.715,288.881 23.570 C 288.423 23.425,287.839 23.105,287.583 22.859 C 287.327 22.613,285.950 21.925,284.523 21.330 C 283.095 20.736,281.805 20.072,281.655 19.856 C 281.488 19.614,281.379 19.605,281.372 19.833 C 281.365 20.059,281.254 20.049,281.088 19.808 C 280.938 19.590,279.481 18.785,277.850 18.020 C 276.219 17.254,273.872 16.143,272.634 15.549 C 271.396 14.955,269.326 14.132,268.034 13.719 C 266.742 13.306,265.502 12.828,265.280 12.656 C 265.057 12.484,263.957 12.047,262.836 11.686 C 261.715 11.324,260.414 10.882,259.945 10.704 C 259.477 10.526,258.758 10.380,258.348 10.380 C 257.938 10.380,257.694 10.232,257.805 10.051 C 257.917 9.871,257.677 9.636,257.271 9.530 C 256.850 9.420,256.531 9.521,256.528 9.766 C 256.524 10.082,256.449 10.079,256.244 9.756 C 256.090 9.515,254.550 8.952,252.820 8.506 C 251.091 8.059,249.592 7.578,249.490 7.438 C 249.388 7.297,247.386 6.795,245.042 6.321 C 242.697 5.847,240.603 5.322,240.388 5.155 C 240.174 4.987,239.632 4.946,239.184 5.063 C 238.736 5.181,238.369 5.110,238.369 4.906 C 238.369 4.702,237.952 4.455,237.442 4.358 C 236.905 4.255,236.513 4.354,236.510 4.593 C 236.506 4.820,236.358 4.774,236.178 4.490 C 235.980 4.177,235.480 4.048,234.899 4.159 C 234.375 4.259,233.899 4.203,233.841 4.034 C 233.782 3.865,232.067 3.522,230.028 3.271 C 227.989 3.020,226.215 2.663,226.087 2.476 C 225.958 2.290,225.167 2.203,224.329 2.283 C 223.491 2.363,222.762 2.313,222.709 2.172 C 222.399 1.339,196.641 0.529,188.693 1.102 M263.488 46.277 C 262.943 46.634,261.723 47.712,260.776 48.672 C 259.830 49.632,258.905 50.417,258.721 50.417 C 258.538 50.417,258.387 50.558,258.387 50.730 C 258.387 50.902,257.554 51.862,256.534 52.862 C 255.515 53.862,254.681 54.894,254.681 55.155 C 254.681 55.417,254.424 55.729,254.110 55.849 C 253.797 55.969,253.301 56.532,253.007 57.100 C 252.713 57.667,252.188 58.417,251.839 58.766 C 251.127 59.478,249.954 61.386,249.622 62.373 C 249.502 62.729,249.287 63.021,249.144 63.021 C 249.002 63.021,248.396 64.064,247.798 65.338 C 247.199 66.613,246.586 67.748,246.435 67.861 C 246.283 67.974,245.725 69.308,245.195 70.826 C 244.665 72.344,244.093 73.671,243.924 73.775 C 243.755 73.880,243.167 75.715,242.616 77.854 C 242.065 79.992,241.499 81.826,241.357 81.928 C 241.036 82.159,239.959 88.276,239.628 91.752 C 239.493 93.179,239.195 94.581,238.968 94.867 C 238.352 95.642,238.409 116.850,239.027 117.056 C 239.277 117.139,239.480 117.819,239.478 118.567 C 239.473 120.849,241.048 131.603,241.387 131.603 C 241.562 131.603,241.702 131.895,241.698 132.252 C 241.686 133.376,243.673 142.901,243.961 143.097 C 244.111 143.200,244.685 145.118,245.235 147.360 C 245.784 149.602,246.352 151.520,246.497 151.622 C 246.641 151.724,247.022 152.725,247.344 153.846 C 247.665 154.968,248.048 156.177,248.193 156.534 C 248.441 157.142,247.841 157.183,238.594 157.183 C 233.169 157.183,228.730 157.309,228.730 157.463 C 228.730 157.618,227.396 157.684,225.765 157.609 C 224.029 157.531,222.799 157.622,222.799 157.830 C 222.799 158.025,221.413 158.282,219.719 158.402 C 214.709 158.755,206.683 159.850,206.549 160.197 C 206.481 160.374,206.135 160.519,205.781 160.519 C 204.578 160.519,195.565 162.422,195.372 162.717 C 195.267 162.878,193.527 163.406,191.505 163.891 C 189.483 164.376,187.648 164.941,187.427 165.148 C 187.206 165.355,185.524 166.022,183.689 166.631 C 181.854 167.240,180.302 167.848,180.241 167.982 C 180.181 168.117,179.096 168.611,177.832 169.080 C 176.567 169.549,175.366 170.135,175.162 170.382 C 174.958 170.630,173.874 171.216,172.753 171.685 C 171.631 172.155,170.511 172.736,170.263 172.977 C 170.015 173.218,169.056 173.782,168.131 174.229 C 167.207 174.677,166.450 175.195,166.450 175.381 C 166.450 175.566,166.280 175.718,166.072 175.718 C 165.605 175.718,162.816 177.523,161.919 178.406 C 161.557 178.763,161.128 179.055,160.967 179.055 C 160.806 179.055,160.058 179.597,159.306 180.259 C 158.555 180.922,157.247 182.048,156.400 182.762 C 154.168 184.644,150.579 188.210,148.656 190.458 C 147.739 191.531,146.532 192.910,145.975 193.523 C 145.417 194.136,144.704 195.135,144.390 195.743 C 144.075 196.351,143.668 196.849,143.484 196.849 C 143.300 196.849,142.918 197.308,142.635 197.868 C 141.814 199.493,141.093 200.673,140.583 201.227 C 140.322 201.510,139.858 202.351,139.551 203.095 C 139.244 203.840,138.784 204.615,138.529 204.819 C 137.989 205.249,136.052 209.618,136.052 210.404 C 136.052 211.161,136.536 211.062,137.078 210.195 C 137.333 209.787,137.781 209.453,138.075 209.453 C 138.369 209.453,139.055 208.869,139.599 208.156 C 140.143 207.442,140.807 206.858,141.074 206.858 C 141.340 206.858,141.887 206.441,142.288 205.931 C 142.689 205.422,143.129 205.005,143.266 205.005 C 143.563 205.005,145.867 203.308,147.170 202.132 C 147.677 201.673,148.308 201.297,148.571 201.297 C 148.835 201.297,149.137 201.070,149.244 200.793 C 149.350 200.515,150.379 199.806,151.530 199.217 C 152.680 198.628,153.919 197.858,154.281 197.506 C 154.644 197.154,155.529 196.620,156.247 196.320 C 156.966 196.020,157.553 195.620,157.553 195.430 C 157.553 195.241,158.558 194.710,159.786 194.251 C 161.014 193.791,162.140 193.207,162.289 192.953 C 162.437 192.698,163.475 192.103,164.597 191.631 C 165.718 191.158,166.719 190.670,166.821 190.547 C 166.923 190.424,167.841 190.004,168.860 189.613 C 170.700 188.909,170.952 188.829,171.614 188.740 C 171.803 188.714,172.179 188.479,172.448 188.217 C 172.717 187.955,174.523 187.261,176.460 186.674 C 178.397 186.088,180.065 185.501,180.167 185.370 C 180.404 185.063,184.763 184.033,188.230 183.465 C 189.708 183.222,190.918 182.903,190.918 182.756 C 190.918 182.267,199.171 181.542,204.819 181.536 C 210.406 181.530,219.092 182.283,219.092 182.775 C 219.092 182.919,219.801 183.150,220.667 183.286 C 223.150 183.678,228.507 185.020,228.916 185.352 C 229.120 185.518,230.619 186.100,232.247 186.644 C 233.875 187.189,235.293 187.753,235.398 187.898 C 235.503 188.043,236.798 188.629,238.276 189.202 C 239.754 189.774,240.964 190.359,240.964 190.501 C 240.964 190.644,241.881 191.165,243.003 191.659 C 244.124 192.153,245.042 192.697,245.042 192.868 C 245.042 193.039,245.584 193.409,246.247 193.689 C 246.909 193.970,248.357 194.879,249.465 195.709 C 250.572 196.540,251.590 197.220,251.727 197.220 C 251.863 197.220,252.542 197.718,253.235 198.326 C 253.928 198.935,254.995 199.848,255.607 200.355 C 258.195 202.500,266.171 210.418,266.172 210.843 C 266.172 211.098,266.464 211.295,266.821 211.281 C 267.587 211.250,269.122 210.636,268.582 210.577 C 268.378 210.554,269.098 210.153,270.182 209.685 C 271.267 209.217,272.468 208.565,272.853 208.235 C 273.237 207.906,274.069 207.369,274.700 207.043 C 275.332 206.716,275.941 206.208,276.054 205.914 C 276.167 205.620,276.398 205.465,276.567 205.570 C 276.737 205.675,277.345 205.339,277.919 204.825 C 278.492 204.311,279.510 203.432,280.181 202.872 C 282.059 201.303,284.629 198.747,284.479 198.597 C 284.406 198.524,284.844 197.985,285.453 197.401 C 286.063 196.817,286.562 196.232,286.562 196.100 C 286.562 195.968,287.225 195.142,288.035 194.264 C 288.845 193.387,289.419 192.525,289.310 192.349 C 289.202 192.173,289.286 192.030,289.498 192.030 C 289.710 192.030,290.216 191.378,290.622 190.581 C 291.029 189.784,291.504 189.075,291.679 189.005 C 291.853 188.936,292.464 187.878,293.036 186.654 C 293.608 185.431,294.224 184.334,294.405 184.217 C 294.586 184.100,294.801 183.658,294.883 183.234 C 294.965 182.810,295.294 181.955,295.616 181.334 C 296.583 179.463,295.856 176.555,293.893 174.435 C 293.522 174.036,292.940 173.076,292.599 172.304 C 292.259 171.531,291.857 170.899,291.707 170.899 C 291.557 170.899,291.001 169.981,290.470 168.860 C 289.940 167.739,289.360 166.821,289.182 166.821 C 289.004 166.821,288.689 166.334,288.481 165.739 C 288.274 165.143,287.798 164.341,287.425 163.956 C 287.052 163.571,286.247 162.308,285.635 161.148 C 285.023 159.988,284.400 159.038,284.250 159.037 C 284.099 159.037,283.739 158.467,283.448 157.771 C 283.157 157.075,282.613 156.195,282.238 155.814 C 281.864 155.433,281.170 154.334,280.697 153.372 C 280.224 152.409,279.672 151.622,279.470 151.622 C 279.269 151.622,279.196 151.473,279.309 151.290 C 279.422 151.107,279.241 150.853,278.907 150.725 C 278.573 150.597,278.402 150.390,278.527 150.265 C 278.652 150.140,278.385 149.518,277.933 148.883 C 277.481 148.249,277.178 147.663,277.261 147.581 C 277.343 147.499,277.074 147.082,276.663 146.654 C 276.253 146.226,275.808 145.530,275.674 145.107 C 275.541 144.684,275.141 144.017,274.787 143.624 C 274.432 143.231,273.660 141.909,273.071 140.686 C 272.483 139.462,271.899 138.378,271.774 138.276 C 271.650 138.174,271.230 137.465,270.841 136.701 C 270.452 135.936,269.998 135.310,269.833 135.310 C 269.667 135.310,269.620 135.082,269.727 134.802 C 269.834 134.523,269.701 134.064,269.431 133.783 C 269.161 133.502,268.638 132.521,268.270 131.603 C 267.902 130.686,267.029 128.827,266.330 127.473 C 265.632 126.118,265.060 124.754,265.060 124.441 C 265.060 124.128,264.845 123.651,264.582 123.381 C 264.319 123.112,263.620 121.390,263.028 119.555 C 262.436 117.720,261.762 116.026,261.529 115.791 C 261.297 115.556,260.721 113.762,260.250 111.806 C 259.778 109.849,259.281 108.248,259.144 108.248 C 259.008 108.248,258.490 106.164,257.993 103.616 C 257.496 101.067,256.994 98.982,256.876 98.982 C 256.758 98.981,256.738 98.462,256.831 97.827 C 256.925 97.193,256.838 96.567,256.639 96.437 C 255.189 95.486,255.083 67.130,256.534 68.026 C 256.683 68.118,256.907 67.322,257.033 66.256 C 257.297 64.019,258.694 58.487,259.066 58.206 C 259.205 58.102,259.536 57.349,259.802 56.534 C 260.466 54.501,261.468 52.124,261.756 51.900 C 261.888 51.798,262.464 50.714,263.038 49.490 C 263.611 48.267,264.298 47.099,264.564 46.895 C 265.536 46.149,264.548 45.581,263.488 46.277 M200.371 102.042 C 199.351 102.251,198.434 102.548,198.332 102.704 C 198.230 102.859,197.187 103.410,196.015 103.929 C 194.842 104.447,193.883 105.028,193.883 105.219 C 193.883 105.410,193.591 105.672,193.234 105.801 C 191.943 106.268,190.870 107.056,190.068 108.127 C 189.618 108.727,188.871 109.619,188.408 110.109 C 187.945 110.599,187.287 111.632,186.946 112.404 C 186.605 113.177,186.197 113.809,186.039 113.809 C 185.655 113.809,183.874 119.696,183.874 120.964 C 183.874 121.515,183.707 121.965,183.503 121.965 C 183.285 121.965,183.133 123.262,183.133 125.116 C 183.133 126.849,183.276 128.267,183.452 128.267 C 183.627 128.267,183.867 129.059,183.985 130.028 C 184.261 132.293,185.346 135.756,185.935 136.250 C 186.186 136.461,186.656 137.212,186.979 137.918 C 188.818 141.944,195.774 147.544,198.934 147.544 C 199.214 147.544,199.444 147.697,199.444 147.884 C 199.444 149.282,213.405 149.318,214.268 147.922 C 214.376 147.747,214.964 147.480,215.574 147.329 C 217.184 146.931,219.572 145.645,220.132 144.874 C 220.399 144.507,220.803 144.208,221.030 144.208 C 221.458 144.208,224.828 140.873,224.834 140.443 C 224.836 140.309,225.275 139.710,225.809 139.110 C 226.771 138.031,228.730 133.658,228.730 132.590 C 228.730 132.285,228.908 131.977,229.125 131.904 C 230.156 131.561,230.130 119.038,229.097 118.690 C 228.895 118.622,228.730 118.327,228.730 118.034 C 228.730 117.026,226.716 112.326,226.284 112.326 C 226.046 112.326,225.746 112.034,225.617 111.677 C 225.103 110.257,221.316 105.751,221.316 106.560 C 221.316 106.753,220.774 106.417,220.111 105.813 C 218.704 104.529,216.807 103.429,216.003 103.429 C 215.692 103.429,215.217 103.209,214.948 102.940 C 213.664 101.658,204.890 101.118,200.371 102.042 M299.133 186.006 C 298.477 187.743,297.150 190.337,296.644 190.871 C 296.378 191.152,295.817 192.111,295.398 193.003 C 294.979 193.895,294.503 194.625,294.341 194.625 C 294.179 194.625,293.605 195.378,293.065 196.298 C 292.042 198.044,291.268 199.009,289.249 201.056 C 288.587 201.727,288.043 202.432,288.042 202.621 C 288.040 202.811,287.255 203.633,286.298 204.449 C 285.341 205.264,283.991 206.474,283.298 207.136 C 282.606 207.799,281.981 208.341,281.910 208.341 C 281.840 208.341,280.699 209.161,279.375 210.162 C 278.052 211.164,276.623 212.094,276.199 212.228 C 275.776 212.362,275.512 212.606,275.613 212.769 C 275.714 212.932,275.036 213.355,274.108 213.710 C 273.179 214.065,272.338 214.568,272.238 214.829 C 272.138 215.089,271.733 215.218,271.338 215.115 C 270.173 214.810,270.449 216.349,271.918 218.350 C 272.632 219.322,273.216 220.304,273.216 220.532 C 273.216 220.759,273.514 221.243,273.877 221.607 C 274.241 221.970,274.929 223.180,275.407 224.294 C 275.884 225.409,276.397 226.404,276.546 226.506 C 276.916 226.759,278.406 230.190,278.406 230.790 C 278.406 231.055,278.625 231.493,278.893 231.762 C 279.160 232.032,279.862 234.004,280.452 236.145 C 281.043 238.285,281.641 240.120,281.782 240.222 C 283.866 241.726,283.848 272.371,281.763 273.957 C 281.629 274.059,281.111 275.798,280.611 277.821 C 280.112 279.844,279.537 281.680,279.333 281.899 C 279.129 282.119,278.479 283.716,277.888 285.449 C 277.297 287.183,276.699 288.684,276.558 288.786 C 276.418 288.888,275.416 290.794,274.333 293.022 C 273.249 295.250,271.960 297.667,271.468 298.392 C 270.976 299.117,270.315 300.255,269.999 300.921 C 269.683 301.587,269.279 302.132,269.101 302.132 C 268.923 302.132,268.528 302.674,268.224 303.336 C 267.422 305.082,266.696 306.094,264.041 309.168 C 262.101 311.413,263.331 312.323,265.532 310.272 C 265.961 309.873,266.491 309.546,266.711 309.546 C 266.930 309.546,267.941 308.988,268.958 308.306 C 269.974 307.624,271.432 306.771,272.196 306.410 C 272.961 306.049,273.587 305.623,273.587 305.463 C 273.587 305.303,274.264 304.819,275.092 304.388 C 275.920 303.956,277.044 303.189,277.590 302.682 C 278.137 302.175,278.776 301.761,279.012 301.761 C 279.248 301.761,279.833 301.347,280.313 300.841 C 280.793 300.334,281.383 299.917,281.623 299.914 C 281.863 299.910,282.405 299.468,282.828 298.931 C 283.250 298.393,283.596 298.059,283.596 298.187 C 283.596 298.433,285.006 297.320,286.466 295.922 C 286.945 295.463,287.454 295.082,287.598 295.076 C 288.065 295.054,289.527 293.683,289.527 293.268 C 289.527 293.046,289.749 292.864,290.020 292.864 C 290.703 292.864,293.115 290.654,299.729 283.967 C 307.715 275.891,307.692 275.915,307.692 275.505 C 307.692 275.302,308.184 274.722,308.784 274.217 C 309.384 273.712,309.791 273.214,309.688 273.111 C 309.585 273.008,309.941 272.447,310.478 271.865 C 311.015 271.283,311.841 270.389,312.313 269.880 C 312.785 269.370,313.383 268.536,313.642 268.026 C 313.901 267.516,314.419 266.881,314.795 266.615 C 315.170 266.348,315.477 265.902,315.477 265.624 C 315.477 265.345,315.939 264.646,316.503 264.069 C 317.067 263.493,317.943 262.229,318.449 261.260 C 318.955 260.292,319.491 259.500,319.641 259.500 C 320.839 259.500,321.779 255.708,321.775 250.893 C 321.770 244.666,320.620 233.510,319.958 233.262 C 319.808 233.207,319.759 232.664,319.848 232.058 C 319.945 231.398,319.844 230.955,319.597 230.955 C 319.370 230.955,319.184 230.669,319.184 230.320 C 319.184 229.324,317.267 221.893,316.957 221.687 C 316.804 221.585,316.251 219.932,315.728 218.015 C 315.206 216.097,314.627 214.429,314.441 214.307 C 314.256 214.186,313.733 212.961,313.278 211.585 C 312.823 210.209,312.288 209.082,312.089 209.082 C 311.889 209.082,311.822 208.928,311.938 208.740 C 312.054 208.552,311.832 207.843,311.444 207.165 C 311.057 206.486,310.541 205.306,310.299 204.541 C 310.057 203.777,309.705 203.151,309.517 203.151 C 309.329 203.151,309.175 202.957,309.175 202.719 C 309.175 202.482,308.174 200.244,306.951 197.746 C 305.728 195.248,304.727 193.024,304.727 192.803 C 304.727 192.581,304.598 192.400,304.440 192.400 C 304.283 192.400,303.838 191.775,303.452 191.010 C 301.815 187.765,300.455 185.727,299.922 185.722 C 299.418 185.717,299.416 185.674,299.907 185.357 C 300.292 185.108,300.318 184.996,299.991 184.992 C 299.731 184.989,299.345 185.445,299.133 186.006 " stroke="none" fill="#046c81" fill-rule="evenodd"></path><path id="path1" d="M194.254 20.029 C 174.384 22.060,156.654 26.899,138.647 35.205 C 134.652 37.048,130.223 39.735,132.715 38.804 C 133.021 38.690,133.981 38.400,134.847 38.161 C 135.714 37.921,136.423 37.597,136.423 37.440 C 136.423 37.283,137.590 36.772,139.018 36.304 C 140.445 35.836,141.613 35.335,141.613 35.190 C 141.613 35.046,142.071 34.818,142.632 34.685 C 144.825 34.163,148.851 32.839,149.032 32.580 C 149.136 32.430,151.138 31.853,153.480 31.297 C 155.822 30.742,157.822 30.173,157.924 30.033 C 158.105 29.784,164.595 28.425,167.933 27.935 C 168.851 27.801,169.685 27.568,169.787 27.418 C 170.035 27.052,179.648 25.965,185.079 25.688 C 187.475 25.566,189.435 25.325,189.435 25.152 C 189.435 24.979,192.854 24.838,197.034 24.838 C 201.214 24.838,204.634 24.979,204.634 25.152 C 204.634 25.325,206.594 25.577,208.990 25.712 C 214.537 26.026,222.761 26.986,223.726 27.433 C 224.338 27.716,229.130 28.670,234.476 29.572 C 235.088 29.675,235.672 29.874,235.774 30.013 C 235.876 30.153,237.919 30.741,240.315 31.320 C 242.711 31.899,244.671 32.494,244.671 32.643 C 244.671 32.791,245.130 33.022,245.690 33.156 C 247.668 33.626,251.902 34.990,252.085 35.216 C 252.187 35.342,253.355 35.833,254.680 36.307 C 256.006 36.782,257.173 37.275,257.275 37.402 C 257.528 37.719,261.448 39.296,261.983 39.296 C 262.219 39.296,262.633 39.510,262.902 39.771 C 263.172 40.033,264.464 40.708,265.774 41.272 C 267.083 41.835,268.334 42.516,268.554 42.784 C 268.773 43.053,269.912 43.660,271.084 44.133 C 272.257 44.606,273.216 45.114,273.216 45.262 C 273.216 45.410,274.008 45.913,274.977 46.380 C 275.945 46.846,276.967 47.454,277.247 47.730 C 277.528 48.006,278.487 48.576,279.379 48.995 C 280.271 49.414,281.001 49.894,281.001 50.060 C 281.001 50.227,281.460 50.595,282.020 50.878 C 283.972 51.864,284.895 52.459,285.191 52.922 C 285.355 53.178,286.148 53.724,286.952 54.134 C 287.757 54.545,288.415 55.048,288.415 55.253 C 288.415 55.458,288.791 55.775,289.249 55.958 C 289.708 56.141,290.918 56.980,291.937 57.823 C 292.956 58.665,294.439 59.880,295.231 60.523 C 297.496 62.360,299.157 63.820,300.917 65.524 C 301.813 66.390,302.713 67.099,302.917 67.099 C 303.121 67.099,303.184 67.266,303.058 67.470 C 302.932 67.674,303.002 67.841,303.214 67.841 C 303.856 67.841,312.659 77.117,316.288 81.619 C 316.836 82.298,317.712 83.379,318.234 84.020 C 318.757 84.661,319.184 85.330,319.184 85.507 C 319.184 85.683,319.518 86.036,319.926 86.290 C 320.334 86.545,320.668 86.960,320.669 87.214 C 320.670 87.467,321.254 88.309,321.967 89.085 C 322.679 89.861,323.262 90.621,323.262 90.776 C 323.262 90.930,323.566 91.382,323.937 91.780 C 324.308 92.178,325.097 93.333,325.690 94.345 C 326.284 95.357,327.064 96.480,327.425 96.841 C 327.786 97.202,328.082 97.690,328.082 97.926 C 328.082 98.162,328.472 98.871,328.949 99.502 C 329.425 100.133,330.273 101.565,330.832 102.684 C 331.390 103.803,331.962 104.804,332.101 104.908 C 332.241 105.012,332.834 106.098,333.421 107.322 C 334.007 108.545,334.601 109.629,334.741 109.731 C 334.882 109.833,335.390 110.876,335.870 112.048 C 336.351 113.221,336.867 114.180,337.017 114.180 C 337.167 114.180,337.574 115.056,337.920 116.126 C 338.267 117.196,338.942 118.866,339.419 119.835 C 339.896 120.805,340.632 122.717,341.054 124.084 C 341.477 125.451,341.953 126.660,342.113 126.770 C 342.274 126.880,342.872 128.638,343.444 130.677 C 344.016 132.715,344.610 134.467,344.764 134.569 C 344.918 134.671,345.425 136.423,345.891 138.462 C 346.356 140.500,346.851 142.252,346.989 142.354 C 347.263 142.555,349.212 152.936,349.212 154.191 C 349.212 154.613,349.348 154.958,349.514 154.958 C 351.631 154.958,351.711 203.186,349.597 204.634 C 349.448 204.736,349.215 205.653,349.079 206.673 C 348.516 210.901,347.234 217.576,347.012 217.438 C 346.881 217.357,346.477 218.730,346.115 220.489 C 345.753 222.248,345.150 224.363,344.776 225.189 C 344.401 226.015,343.712 228.109,343.244 229.842 C 342.777 231.576,342.292 233.077,342.168 233.179 C 341.881 233.414,341.293 234.995,340.477 237.729 C 340.125 238.906,339.748 239.779,339.639 239.670 C 339.529 239.560,339.212 240.182,338.934 241.051 C 338.309 243.006,337.258 245.535,336.968 245.783 C 336.849 245.885,335.863 247.772,334.777 249.976 C 333.691 252.181,332.616 254.183,332.388 254.425 C 332.160 254.667,331.474 255.908,330.862 257.182 C 330.250 258.456,329.637 259.498,329.499 259.499 C 329.361 259.499,328.813 260.417,328.283 261.538 C 327.752 262.660,327.183 263.577,327.017 263.577 C 326.851 263.577,326.319 264.347,325.835 265.288 C 325.352 266.229,324.742 267.081,324.480 267.181 C 324.218 267.282,324.004 267.532,324.004 267.737 C 324.004 268.197,321.235 272.134,319.796 273.720 C 319.214 274.360,318.504 275.338,318.216 275.893 C 317.929 276.447,317.362 277.079,316.956 277.296 C 316.551 277.513,316.219 277.908,316.219 278.174 C 316.219 278.440,315.635 279.189,314.921 279.838 C 314.208 280.488,313.624 281.155,313.624 281.321 C 313.624 281.486,312.874 282.358,311.958 283.258 C 311.042 284.157,310.292 285.011,310.290 285.155 C 310.286 285.514,302.104 293.605,301.745 293.605 C 301.586 293.605,301.062 294.064,300.580 294.625 C 299.820 295.509,297.672 297.363,293.420 300.807 C 292.808 301.303,291.620 302.304,290.780 303.032 C 289.940 303.760,289.073 304.356,288.855 304.356 C 288.636 304.356,288.237 304.648,287.968 305.005 C 287.519 305.601,286.905 306.022,284.893 307.114 C 284.486 307.335,283.669 307.973,283.078 308.531 C 282.488 309.089,281.779 309.546,281.503 309.546 C 281.227 309.546,280.702 309.838,280.336 310.195 C 279.971 310.551,278.928 311.244,278.019 311.733 C 277.111 312.222,276.117 312.828,275.811 313.080 C 275.505 313.331,274.561 313.886,273.714 314.312 C 272.866 314.738,272.115 315.225,272.045 315.395 C 271.976 315.564,270.792 316.178,269.416 316.758 C 268.040 317.338,266.914 317.955,266.914 318.128 C 266.914 318.301,266.702 318.443,266.443 318.443 C 266.185 318.443,264.665 319.100,263.066 319.903 C 261.468 320.706,259.302 321.658,258.254 322.018 C 257.206 322.378,256.098 322.867,255.792 323.105 C 255.487 323.343,254.069 323.917,252.641 324.382 C 251.214 324.846,249.963 325.337,249.861 325.473 C 249.675 325.721,246.517 326.713,243.753 327.391 C 242.943 327.589,242.192 327.882,242.085 328.041 C 241.886 328.336,233.972 330.306,232.984 330.306 C 232.683 330.306,232.437 330.454,232.437 330.635 C 232.437 330.815,231.395 331.145,230.120 331.366 C 224.847 332.283,220.765 332.901,219.984 332.901 C 219.527 332.901,219.098 333.051,219.030 333.234 C 218.397 334.942,175.821 334.971,174.606 333.264 C 174.504 333.121,173.003 332.807,171.270 332.565 C 165.472 331.759,161.631 330.974,161.631 330.596 C 161.631 330.390,161.131 330.295,160.519 330.385 C 159.907 330.475,159.407 330.429,159.407 330.283 C 159.407 330.137,158.781 329.909,158.017 329.777 C 155.294 329.305,151.674 328.297,151.825 328.052 C 152.025 327.729,149.090 327.257,148.634 327.539 C 148.442 327.658,148.285 327.583,148.285 327.372 C 148.285 327.162,147.368 326.723,146.247 326.397 C 145.125 326.071,144.208 325.650,144.208 325.460 C 144.208 325.271,143.983 325.116,143.709 325.116 C 143.435 325.116,142.309 324.807,141.207 324.430 C 140.105 324.053,138.957 323.678,138.656 323.596 C 138.355 323.514,137.899 323.254,137.642 323.016 C 137.385 322.779,136.088 322.223,134.760 321.781 C 133.432 321.339,132.345 320.841,132.345 320.673 C 132.345 320.506,131.808 320.182,131.151 319.953 C 129.131 319.249,127.155 318.313,127.155 318.060 C 127.155 317.928,125.987 317.349,124.560 316.775 C 123.133 316.200,121.965 315.618,121.965 315.482 C 121.965 315.345,121.093 314.829,120.027 314.336 C 118.960 313.842,117.793 313.146,117.432 312.790 C 117.070 312.433,116.563 312.141,116.303 312.141 C 116.044 312.141,115.230 311.645,114.495 311.039 C 113.760 310.433,112.345 309.520,111.352 309.010 C 110.359 308.499,109.713 308.076,109.917 308.068 C 110.120 308.060,109.537 307.629,108.619 307.110 C 107.702 306.591,106.663 305.800,106.310 305.354 C 105.863 304.786,105.667 304.706,105.662 305.087 C 105.656 305.453,105.463 305.361,105.076 304.809 C 104.759 304.356,104.363 303.985,104.196 303.985 C 104.029 303.985,103.256 303.401,102.476 302.688 C 101.697 301.974,100.861 301.390,100.619 301.390 C 100.376 301.390,99.898 300.963,99.556 300.440 C 99.213 299.918,98.735 299.557,98.494 299.638 C 98.252 299.719,97.607 299.188,97.061 298.456 C 96.514 297.725,95.905 297.127,95.706 297.127 C 95.309 297.127,94.637 296.504,86.656 288.733 C 83.649 285.806,81.188 283.208,81.187 282.960 C 81.187 282.713,80.856 282.333,80.452 282.117 C 80.048 281.901,79.297 281.105,78.784 280.350 C 78.270 279.594,77.850 279.136,77.850 279.333 C 77.850 279.529,77.427 279.068,76.910 278.307 C 76.393 277.546,75.845 276.923,75.692 276.923 C 75.540 276.923,75.106 276.400,74.729 275.762 C 74.351 275.123,73.253 273.794,72.288 272.809 C 71.323 271.823,70.593 270.957,70.666 270.885 C 70.739 270.812,70.300 270.274,69.690 269.690 C 69.081 269.106,68.582 268.416,68.582 268.155 C 68.582 267.894,68.250 267.504,67.844 267.287 C 67.439 267.069,66.872 266.438,66.584 265.883 C 66.297 265.329,65.544 264.291,64.911 263.577 C 62.974 261.394,62.650 260.990,62.670 260.781 C 62.681 260.670,62.305 260.101,61.836 259.517 C 59.962 257.183,59.600 256.666,58.907 255.329 C 58.511 254.564,58.031 253.939,57.841 253.939 C 57.651 253.939,57.211 253.340,56.864 252.607 C 56.516 251.875,56.009 251.190,55.736 251.086 C 55.464 250.981,55.332 250.748,55.443 250.568 C 55.554 250.388,55.303 249.874,54.885 249.425 C 54.466 248.976,54.124 248.390,54.124 248.123 C 54.124 247.855,53.814 247.326,53.434 246.946 C 53.054 246.567,52.281 245.274,51.716 244.073 C 51.151 242.873,50.555 241.804,50.392 241.699 C 50.229 241.593,49.611 240.301,49.019 238.827 C 48.427 237.354,47.832 236.258,47.697 236.393 C 47.562 236.528,47.451 236.369,47.451 236.038 C 47.451 235.260,46.671 233.550,46.316 233.550 C 46.015 233.550,47.637 239.021,49.064 242.817 C 53.615 254.922,59.279 265.837,67.338 278.035 C 92.973 316.834,138.141 343.115,189.435 349.078 C 271.484 358.616,344.878 309.169,368.616 228.360 C 382.173 182.208,371.834 127.091,342.016 86.565 C 338.529 81.826,338.824 82.195,334.299 76.923 C 325.573 66.755,315.026 57.264,302.663 48.451 C 296.743 44.231,283.607 36.795,277.665 34.300 C 269.911 31.044,267.820 30.207,264.133 28.887 C 246.299 22.502,231.585 19.994,210.936 19.820 C 203.494 19.758,195.987 19.852,194.254 20.029 M58.573 45.386 C 58.573 45.677,58.355 46.136,58.088 46.405 C 57.822 46.675,57.280 47.697,56.884 48.676 C 56.487 49.655,55.880 50.765,55.535 51.141 C 55.189 51.517,54.463 52.879,53.921 54.167 C 53.379 55.454,52.726 56.681,52.469 56.892 C 52.212 57.103,51.688 58.067,51.302 59.035 C 50.917 60.002,50.508 60.795,50.393 60.796 C 50.277 60.796,49.693 61.840,49.095 63.114 C 48.497 64.388,47.841 65.610,47.637 65.829 C 47.433 66.048,46.851 67.132,46.343 68.239 C 45.836 69.345,45.320 70.334,45.196 70.436 C 45.073 70.538,44.516 71.537,43.958 72.656 C 43.400 73.776,42.822 74.776,42.672 74.880 C 42.523 74.984,42.015 76.032,41.544 77.208 C 41.072 78.385,40.480 79.469,40.227 79.618 C 39.974 79.767,39.386 80.973,38.921 82.298 C 38.455 83.624,37.863 85.042,37.606 85.449 C 37.349 85.857,36.772 87.525,36.324 89.157 C 35.875 90.788,35.377 92.289,35.217 92.493 C 35.057 92.697,34.450 95.199,33.870 98.054 C 33.290 100.908,32.713 103.327,32.588 103.429 C 30.390 105.228,30.424 145.537,32.628 150.324 C 32.816 150.732,33.397 153.561,33.919 156.611 C 34.441 159.661,34.993 162.247,35.144 162.357 C 35.295 162.468,35.899 164.560,36.485 167.006 C 37.070 169.453,37.661 171.538,37.798 171.640 C 37.934 171.742,38.490 173.398,39.033 175.321 C 39.576 177.243,40.154 178.911,40.316 179.028 C 40.479 179.145,40.999 180.441,41.472 181.909 C 41.945 183.376,42.441 184.628,42.575 184.689 C 42.824 184.804,44.388 188.960,44.744 190.454 C 44.853 190.913,45.064 191.288,45.211 191.288 C 45.359 191.288,45.960 192.498,46.547 193.976 C 47.134 195.454,47.726 196.747,47.862 196.849 C 47.998 196.951,48.564 198.119,49.120 199.444 C 49.675 200.769,50.236 201.937,50.366 202.039 C 50.496 202.141,51.015 203.058,51.520 204.078 C 52.025 205.097,52.545 206.015,52.675 206.117 C 52.806 206.219,53.380 207.303,53.951 208.526 C 54.522 209.750,55.106 210.834,55.250 210.936 C 55.393 211.038,55.944 211.982,56.474 213.033 C 57.004 214.084,57.568 215.002,57.727 215.072 C 57.886 215.142,58.414 216.033,58.899 217.053 C 59.384 218.072,59.987 219.075,60.238 219.280 C 60.489 219.486,61.140 220.487,61.686 221.505 C 62.918 223.800,64.207 225.709,65.216 226.730 C 65.640 227.160,65.987 227.684,65.987 227.896 C 65.987 228.108,66.487 228.817,67.099 229.472 C 67.711 230.127,68.211 230.732,68.211 230.816 C 68.211 231.147,70.281 234.131,70.806 234.557 C 71.628 235.224,71.781 235.150,72.316 233.828 C 72.584 233.165,72.925 232.538,73.074 232.433 C 73.346 232.242,74.247 229.942,74.924 227.711 C 75.125 227.048,75.435 226.506,75.613 226.506 C 75.791 226.506,76.308 225.255,76.762 223.726 C 77.216 222.196,77.710 220.945,77.861 220.945 C 78.011 220.945,78.222 220.570,78.329 220.111 C 78.842 217.910,80.195 213.696,80.441 213.531 C 80.593 213.429,81.182 211.511,81.749 209.268 C 82.316 207.025,82.903 205.107,83.053 205.005 C 83.204 204.903,83.803 202.484,84.385 199.629 C 84.967 196.775,85.549 194.356,85.678 194.254 C 85.932 194.054,87.321 186.167,87.719 182.669 C 87.852 181.497,88.147 180.535,88.374 180.532 C 88.600 180.529,88.536 180.364,88.230 180.167 C 87.924 179.969,87.855 179.805,88.077 179.802 C 89.096 179.787,90.267 159.917,89.967 147.729 C 89.737 138.420,88.662 124.560,88.168 124.560 C 87.998 124.560,87.859 124.159,87.859 123.669 C 87.859 121.944,85.940 111.398,85.604 111.276 C 85.417 111.208,85.264 110.857,85.264 110.497 C 85.264 110.137,84.840 108.128,84.322 106.033 C 83.270 101.781,83.299 100.790,84.423 102.623 C 84.839 103.301,85.532 104.103,85.963 104.405 C 86.394 104.707,86.750 105.153,86.754 105.396 C 86.758 105.640,87.324 106.483,88.012 107.271 C 88.699 108.059,89.489 109.135,89.765 109.661 C 90.042 110.188,90.644 111.027,91.103 111.526 C 91.562 112.026,91.937 112.660,91.937 112.936 C 91.937 113.212,92.229 113.734,92.586 114.096 C 92.943 114.457,93.728 115.750,94.331 116.969 C 94.934 118.187,95.528 119.268,95.651 119.370 C 95.774 119.472,96.349 120.681,96.927 122.057 C 97.506 123.434,98.102 124.560,98.252 124.560 C 98.401 124.560,98.613 124.935,98.722 125.394 C 99.052 126.783,100.132 129.544,100.425 129.746 C 100.576 129.850,101.167 131.603,101.739 133.642 C 102.311 135.681,102.909 137.433,103.068 137.535 C 103.227 137.637,103.817 139.805,104.379 142.354 C 104.941 144.903,105.516 147.071,105.656 147.173 C 105.938 147.379,107.340 155.958,107.730 159.870 C 107.868 161.247,108.095 162.373,108.235 162.373 C 109.659 162.373,109.621 207.726,108.196 208.279 C 108.021 208.347,107.878 208.926,107.878 209.565 C 107.878 211.578,105.987 225.928,105.695 226.129 C 105.306 226.397,104.011 234.255,104.307 234.551 C 104.567 234.811,105.835 233.600,106.803 232.168 C 107.415 231.262,109.021 229.319,111.120 226.942 C 111.781 226.192,112.323 225.390,112.324 225.158 C 112.325 224.927,112.743 224.464,113.253 224.130 C 113.763 223.796,114.180 223.301,114.180 223.030 C 114.180 222.758,114.555 222.122,115.014 221.615 C 116.150 220.360,117.514 218.445,117.527 218.087 C 117.532 217.926,118.033 217.308,118.639 216.713 C 119.245 216.118,119.741 215.432,119.741 215.188 C 119.741 214.944,120.180 214.304,120.718 213.767 C 121.255 213.229,121.578 212.790,121.434 212.790 C 121.290 212.790,121.518 212.305,121.940 211.713 C 122.361 211.121,122.709 210.495,122.713 210.323 C 122.716 210.150,123.133 209.616,123.639 209.136 C 124.146 208.656,124.560 208.031,124.560 207.746 C 124.560 207.462,124.852 206.933,125.209 206.572 C 125.565 206.210,126.351 204.917,126.953 203.699 C 127.556 202.480,128.154 201.399,128.281 201.297 C 128.408 201.196,128.991 200.111,129.577 198.888 C 130.162 197.665,130.756 196.580,130.895 196.478 C 131.035 196.376,131.604 195.209,132.159 193.883 C 132.715 192.558,133.291 191.390,133.438 191.288 C 133.586 191.186,133.807 190.769,133.928 190.361 C 134.470 188.545,135.393 186.276,135.662 186.102 C 136.001 185.884,137.905 180.337,137.905 179.569 C 137.905 179.286,138.053 179.055,138.233 179.055 C 138.413 179.055,138.642 178.679,138.741 178.221 C 139.291 175.675,140.630 171.058,140.864 170.899 C 141.192 170.675,143.101 159.348,143.098 157.646 C 143.097 156.983,143.242 156.441,143.421 156.441 C 143.828 156.441,144.383 145.903,144.008 145.296 C 143.857 145.052,143.767 143.456,143.808 141.750 C 143.849 140.043,143.730 138.647,143.543 138.647 C 143.357 138.647,143.098 137.437,142.967 135.959 C 142.653 132.389,141.314 125.889,140.861 125.734 C 140.663 125.666,140.500 125.425,140.500 125.199 C 140.500 124.284,138.557 118.628,138.243 118.628 C 138.057 118.628,137.906 118.420,137.907 118.165 C 137.908 117.412,135.968 113.068,135.631 113.068 C 135.372 113.068,134.157 110.773,134.046 110.075 C 134.028 109.959,133.725 109.576,133.373 109.224 C 133.022 108.872,132.458 108.003,132.120 107.291 C 131.783 106.580,131.195 105.832,130.814 105.628 C 130.432 105.424,130.120 105.024,130.120 104.740 C 130.120 104.457,129.681 103.879,129.144 103.456 C 128.606 103.033,128.394 102.688,128.672 102.688 C 128.950 102.688,128.555 102.175,127.795 101.549 C 127.035 100.922,126.413 100.244,126.413 100.041 C 126.413 99.607,121.933 95.273,121.485 95.273 C 121.317 95.273,121.282 95.108,121.406 94.907 C 121.531 94.705,121.415 94.618,121.150 94.713 C 120.884 94.808,120.250 94.297,119.741 93.577 C 119.231 92.857,118.480 92.103,118.072 91.901 C 116.669 91.207,115.845 90.627,114.561 89.430 C 113.852 88.770,113.066 88.230,112.813 88.230 C 112.559 88.230,112.174 87.896,111.956 87.488 C 111.737 87.081,111.332 86.747,111.055 86.747 C 110.778 86.747,110.051 86.288,109.439 85.728 C 108.346 84.725,107.392 84.075,105.752 83.216 C 105.296 82.977,105.010 82.695,105.116 82.588 C 105.222 82.482,104.738 82.124,104.039 81.793 C 103.341 81.461,102.376 80.775,101.894 80.268 C 101.413 79.761,100.888 79.343,100.726 79.339 C 100.369 79.331,98.418 77.965,97.144 76.830 C 96.629 76.372,95.992 75.996,95.729 75.996 C 95.466 75.996,95.154 75.747,95.038 75.442 C 94.921 75.138,94.693 74.970,94.532 75.070 C 94.371 75.169,94.148 75.014,94.037 74.725 C 93.926 74.435,93.243 73.918,92.519 73.574 C 91.795 73.230,91.277 72.828,91.368 72.680 C 91.460 72.532,90.999 72.135,90.346 71.796 C 88.535 70.860,87.703 70.297,87.376 69.784 C 87.212 69.528,86.440 68.993,85.661 68.595 C 84.881 68.198,84.145 67.615,84.024 67.300 C 83.903 66.986,83.617 66.728,83.388 66.728 C 82.889 66.728,80.943 65.252,81.414 65.231 C 81.595 65.223,81.242 64.952,80.630 64.630 C 80.019 64.307,79.143 63.701,78.684 63.282 C 78.225 62.864,77.850 62.628,77.850 62.758 C 77.850 62.984,77.503 62.709,75.162 60.626 C 74.601 60.127,74.143 59.794,74.143 59.887 C 74.143 59.980,73.826 59.764,73.438 59.407 C 73.051 59.050,72.119 58.258,71.368 57.646 C 70.617 57.034,69.562 56.117,69.023 55.607 C 68.485 55.097,67.638 54.400,67.140 54.058 C 65.589 52.991,60.797 48.093,60.797 47.574 C 60.797 47.303,60.650 47.081,60.471 47.081 C 60.292 47.081,59.938 46.580,59.685 45.968 C 59.203 44.806,58.573 44.476,58.573 45.386 M167.377 212.098 C 165.542 212.274,163.985 212.585,163.917 212.789 C 163.849 212.993,163.516 213.162,163.176 213.165 C 162.836 213.167,161.223 213.514,159.592 213.937 C 157.961 214.359,156.251 214.793,155.792 214.902 C 155.334 215.011,154.958 215.237,154.958 215.405 C 154.958 215.572,153.718 216.170,152.202 216.734 C 150.686 217.297,149.519 217.875,149.607 218.018 C 149.695 218.161,149.309 218.439,148.748 218.636 C 147.370 219.119,141.936 222.628,142.183 222.875 C 142.292 222.984,141.786 223.355,141.059 223.700 C 140.332 224.045,139.535 224.650,139.288 225.046 C 139.041 225.441,138.646 225.765,138.411 225.765 C 138.175 225.765,137.499 226.307,136.907 226.969 C 136.316 227.632,135.239 228.591,134.514 229.101 C 133.788 229.611,132.142 231.252,130.856 232.748 C 129.569 234.244,128.085 235.943,127.557 236.524 C 125.899 238.352,124.792 239.691,123.262 241.722 C 122.447 242.805,121.446 244.054,121.038 244.498 C 120.131 245.487,119.025 247.226,118.748 248.100 C 118.634 248.457,118.408 248.749,118.245 248.749 C 118.081 248.749,117.575 249.374,117.119 250.139 C 116.663 250.904,116.107 251.700,115.884 251.909 C 115.292 252.462,114.180 254.654,114.180 255.266 C 114.180 255.917,115.147 255.965,115.392 255.326 C 115.490 255.070,116.433 254.550,117.487 254.171 C 118.541 253.792,119.604 253.286,119.850 253.047 C 120.096 252.808,121.214 252.223,122.335 251.746 C 123.457 251.270,124.466 250.738,124.577 250.564 C 124.688 250.389,125.927 249.831,127.330 249.322 C 128.732 248.813,129.976 248.261,130.093 248.095 C 130.210 247.928,131.801 247.335,133.628 246.775 C 135.455 246.216,137.040 245.619,137.150 245.450 C 137.260 245.280,139.184 244.670,141.427 244.095 C 143.670 243.519,145.589 242.929,145.691 242.782 C 145.793 242.636,147.878 242.134,150.325 241.668 C 152.771 241.202,154.856 240.706,154.958 240.565 C 155.327 240.057,164.680 239.015,173.123 238.541 C 177.743 238.282,189.529 238.901,194.673 239.674 C 196.683 239.975,198.421 240.222,198.537 240.222 C 199.602 240.222,197.908 240.920,196.394 241.105 C 193.340 241.478,187.786 242.550,187.581 242.806 C 187.479 242.933,185.477 243.504,183.133 244.075 C 180.788 244.645,178.703 245.239,178.499 245.395 C 178.295 245.550,176.714 246.127,174.987 246.676 C 173.259 247.226,171.758 247.800,171.650 247.952 C 171.543 248.105,170.621 248.506,169.601 248.844 C 166.626 249.830,164.753 250.568,165.153 250.597 C 165.357 250.611,164.439 251.061,163.114 251.597 C 161.789 252.132,160.621 252.695,160.519 252.848 C 160.417 253.000,159.338 253.565,158.122 254.103 C 156.906 254.641,155.821 255.218,155.712 255.385 C 155.603 255.553,154.555 256.157,153.383 256.728 C 152.210 257.299,151.251 257.870,151.251 257.997 C 151.251 258.124,150.334 258.723,149.214 259.327 C 148.093 259.932,147.175 260.548,147.175 260.697 C 147.174 260.846,146.506 261.308,145.690 261.724 C 144.875 262.140,144.208 262.648,144.208 262.853 C 144.208 263.057,143.832 263.375,143.373 263.558 C 142.590 263.871,140.670 265.346,137.432 268.123 C 135.089 270.133,128.137 277.115,127.212 278.387 C 126.146 279.854,126.523 280.344,129.750 281.693 C 130.871 282.161,132.539 282.921,133.457 283.380 C 134.374 283.840,135.959 284.442,136.979 284.719 C 137.998 284.995,139.014 285.398,139.235 285.614 C 139.457 285.829,141.376 286.418,143.499 286.921 C 145.622 287.425,147.442 287.945,147.544 288.078 C 147.804 288.415,153.973 289.416,158.974 289.931 C 168.108 290.873,190.331 289.548,190.856 288.031 C 190.924 287.835,191.228 287.674,191.533 287.674 C 192.645 287.674,200.185 285.732,200.185 285.446 C 200.185 285.284,201.395 284.784,202.873 284.335 C 204.351 283.887,205.644 283.407,205.746 283.270 C 205.956 282.987,208.209 282.019,210.287 281.320 C 211.052 281.062,211.677 280.731,211.677 280.583 C 211.677 280.435,212.637 279.862,213.809 279.310 C 214.981 278.758,216.024 278.201,216.126 278.073 C 216.228 277.945,217.271 277.378,218.443 276.814 C 219.615 276.250,220.576 275.668,220.577 275.521 C 220.579 275.375,220.954 275.068,221.412 274.840 C 223.826 273.635,224.652 273.134,224.652 272.876 C 224.652 272.719,225.404 272.204,226.323 271.732 C 227.242 271.259,227.906 270.785,227.798 270.677 C 227.690 270.570,228.357 270.012,229.279 269.439 C 230.200 268.865,230.955 268.229,230.955 268.025 C 230.955 267.822,231.179 267.655,231.453 267.655 C 231.727 267.655,232.254 267.322,232.623 266.914 C 232.992 266.506,233.487 266.172,233.723 266.172 C 233.959 266.172,234.522 265.672,234.974 265.060 C 235.426 264.449,235.987 263.948,236.219 263.948 C 236.452 263.948,237.240 263.350,237.969 262.618 C 238.699 261.887,241.579 259.068,244.369 256.354 C 247.159 253.640,249.372 251.349,249.286 251.263 C 249.200 251.178,250.045 250.240,251.164 249.180 C 253.789 246.692,253.779 245.783,251.128 245.783 C 250.635 245.783,250.232 245.638,250.232 245.460 C 250.232 245.282,249.542 245.026,248.699 244.891 C 246.434 244.529,241.723 243.089,241.895 242.811 C 241.976 242.679,241.842 242.555,241.596 242.536 C 240.783 242.473,238.093 241.377,236.084 240.290 C 234.996 239.701,234.022 239.210,233.920 239.199 C 233.479 239.151,231.463 238.187,230.955 237.782 C 230.649 237.538,229.497 236.955,228.396 236.486 C 227.295 236.018,225.977 235.249,225.469 234.777 C 224.960 234.306,224.327 233.920,224.061 233.920 C 223.796 233.920,223.122 233.497,222.564 232.980 C 222.006 232.463,221.330 232.124,221.062 232.227 C 220.794 232.330,220.575 232.285,220.575 232.126 C 220.575 231.801,217.374 229.472,216.927 229.472 C 216.768 229.472,216.147 229.008,215.548 228.440 C 214.948 227.873,214.041 227.207,213.531 226.960 C 212.287 226.358,211.328 225.714,210.500 224.925 C 210.123 224.566,209.150 224.006,208.338 223.681 C 207.527 223.357,206.939 222.968,207.033 222.817 C 207.126 222.666,206.332 222.143,205.269 221.655 C 204.206 221.167,203.214 220.599,203.064 220.393 C 202.885 220.147,202.788 220.145,202.780 220.389 C 202.774 220.600,202.652 220.582,202.497 220.346 C 202.137 219.800,199.258 218.350,198.532 218.350 C 198.218 218.350,197.961 218.174,197.961 217.958 C 197.961 217.742,197.794 217.668,197.590 217.794 C 197.386 217.920,197.220 217.860,197.220 217.661 C 197.220 217.462,196.094 216.927,194.717 216.472 C 193.341 216.017,192.109 215.483,191.980 215.284 C 191.851 215.086,191.518 214.999,191.242 215.091 C 190.965 215.183,190.548 215.068,190.316 214.836 C 190.083 214.603,188.163 214.100,186.049 213.717 C 183.935 213.335,182.112 212.885,181.997 212.717 C 181.444 211.914,173.018 211.557,167.377 212.098 " stroke="none" fill="#94b43c" fill-rule="evenodd"></path><path id="path2" d="M97.004 152.827 C 96.698 162.834,96.001 173.624,95.646 173.865 C 95.495 173.967,95.258 175.218,95.119 176.645 C 94.520 182.793,93.316 191.120,92.997 191.319 C 92.807 191.437,92.616 192.562,92.572 193.818 C 92.529 195.073,92.400 196.102,92.287 196.104 C 92.174 196.106,91.770 197.859,91.390 200.000 C 91.009 202.141,90.579 203.892,90.434 203.892 C 90.289 203.892,90.083 204.226,89.976 204.634 C 89.865 205.058,89.965 205.378,90.211 205.381 C 90.471 205.384,90.437 205.515,90.123 205.714 C 89.820 205.905,89.691 206.364,89.810 206.820 C 89.922 207.249,89.881 207.600,89.719 207.600 C 89.557 207.600,89.307 208.225,89.164 208.990 C 89.021 209.754,88.593 211.297,88.211 212.419 C 87.830 213.540,87.167 216.205,86.738 218.341 C 86.309 220.477,85.816 222.396,85.643 222.605 C 85.220 223.116,84.435 227.546,84.693 227.964 C 84.806 228.147,84.735 228.352,84.535 228.421 C 84.336 228.489,83.981 229.835,83.747 231.413 C 83.514 232.990,83.194 234.201,83.038 234.104 C 82.682 233.884,82.162 237.849,82.480 238.362 C 82.608 238.570,82.559 238.740,82.371 238.740 C 82.028 238.740,80.813 246.770,80.815 249.027 C 80.815 249.690,80.629 250.232,80.400 250.232 C 80.122 250.232,80.038 250.965,80.146 252.456 C 80.234 253.679,80.171 254.680,80.005 254.680 C 79.839 254.680,79.703 258.350,79.703 262.836 C 79.703 268.551,79.826 270.992,80.114 270.992 C 80.340 270.992,80.428 271.242,80.311 271.548 C 80.193 271.854,80.263 272.104,80.466 272.104 C 80.668 272.104,80.988 272.510,81.177 273.006 C 81.365 273.502,82.029 274.284,82.651 274.744 C 83.272 275.203,83.787 275.757,83.793 275.973 C 83.809 276.518,85.512 278.406,85.988 278.406 C 86.201 278.406,86.376 278.623,86.376 278.888 C 86.376 279.430,95.138 288.404,95.784 288.524 C 96.279 288.615,97.868 290.187,97.868 290.585 C 97.868 290.737,98.578 291.311,99.445 291.859 C 100.312 292.407,101.231 293.191,101.487 293.601 C 101.743 294.011,102.190 294.347,102.480 294.347 C 102.770 294.347,103.341 294.814,103.748 295.386 C 104.155 295.958,105.166 296.751,105.993 297.147 C 106.821 297.544,107.500 298.081,107.503 298.341 C 107.505 298.601,107.882 298.976,108.341 299.174 C 109.427 299.644,110.357 300.268,111.505 301.297 C 112.016 301.756,112.638 302.132,112.886 302.132 C 113.134 302.132,113.780 302.574,114.320 303.115 C 114.861 303.655,115.401 304.000,115.520 303.881 C 115.639 303.762,116.215 304.154,116.799 304.752 C 117.384 305.349,118.160 305.836,118.523 305.833 C 119.050 305.829,119.079 305.761,118.667 305.500 C 118.382 305.320,118.252 304.905,118.377 304.579 C 118.503 304.252,118.472 303.985,118.310 303.985 C 117.969 303.985,117.146 299.824,117.146 298.104 C 117.146 297.465,117.020 296.942,116.867 296.942 C 116.590 296.942,116.611 287.524,116.890 287.015 C 116.971 286.868,117.252 285.454,117.514 283.874 C 117.777 282.294,118.153 281.001,118.350 281.001 C 118.547 281.001,118.612 280.751,118.494 280.445 C 118.377 280.139,118.431 279.889,118.615 279.889 C 118.888 279.889,119.284 279.117,119.567 278.035 C 120.012 276.333,120.273 275.811,120.678 275.811 C 120.946 275.811,121.274 275.310,121.409 274.699 C 121.543 274.087,121.807 273.587,121.994 273.587 C 122.182 273.587,122.335 273.338,122.335 273.034 C 122.335 272.730,122.652 272.283,123.040 272.041 C 123.427 271.799,123.660 271.380,123.556 271.111 C 123.453 270.841,123.511 270.615,123.686 270.607 C 123.861 270.599,124.671 269.999,125.487 269.272 C 126.302 268.546,126.761 268.062,126.506 268.196 C 125.669 268.638,126.022 267.964,127.053 267.153 C 127.609 266.715,128.151 266.358,128.258 266.358 C 128.618 266.358,131.790 263.024,131.696 262.743 C 131.645 262.590,131.844 262.465,132.138 262.465 C 132.433 262.465,132.920 262.114,133.221 261.684 C 133.522 261.254,133.940 261.008,134.150 261.138 C 134.360 261.268,134.713 261.036,134.934 260.622 C 135.155 260.209,135.581 259.870,135.880 259.870 C 136.178 259.870,136.423 259.602,136.423 259.275 C 136.423 258.902,136.627 258.757,136.969 258.888 C 137.270 259.004,137.681 258.814,137.884 258.465 C 138.181 257.955,138.257 257.940,138.273 258.387 C 138.287 258.794,138.465 258.727,138.933 258.141 C 139.285 257.699,140.199 257.082,140.964 256.769 C 141.728 256.457,142.354 256.016,142.354 255.789 C 142.354 255.563,142.521 255.481,142.725 255.607 C 142.929 255.733,143.095 255.659,143.095 255.444 C 143.095 255.228,143.304 255.049,143.559 255.046 C 143.814 255.043,145.507 254.292,147.321 253.377 C 149.136 252.463,150.851 251.715,151.133 251.715 C 151.415 251.715,151.741 251.464,151.859 251.158 C 151.991 250.813,152.398 250.661,152.931 250.758 C 153.430 250.849,153.870 250.705,153.981 250.416 C 154.086 250.142,154.557 249.856,155.028 249.779 C 155.558 249.693,155.148 249.528,153.956 249.347 C 152.895 249.186,151.811 249.189,151.546 249.354 C 151.282 249.518,150.690 249.604,150.232 249.545 C 149.773 249.486,149.398 249.619,149.398 249.842 C 149.398 250.088,149.035 250.155,148.471 250.013 C 147.876 249.864,147.544 249.937,147.544 250.216 C 147.544 250.477,147.259 250.562,146.834 250.427 C 146.443 250.303,146.023 250.364,145.901 250.562 C 145.778 250.761,144.763 251.127,143.645 251.378 C 142.527 251.628,141.613 251.957,141.613 252.110 C 141.613 252.262,141.304 252.306,140.926 252.207 C 140.549 252.108,140.005 252.263,139.718 252.550 C 139.431 252.837,138.750 253.184,138.206 253.321 C 137.661 253.457,136.974 253.811,136.678 254.107 C 136.382 254.403,136.037 254.542,135.911 254.415 C 135.784 254.289,135.681 254.375,135.681 254.607 C 135.681 254.838,135.431 254.932,135.125 254.814 C 134.819 254.697,134.569 254.795,134.569 255.033 C 134.569 255.271,134.402 255.362,134.198 255.236 C 133.994 255.110,133.828 255.150,133.828 255.325 C 133.828 255.500,133.233 255.859,132.506 256.121 C 131.779 256.384,131.098 256.824,130.992 257.099 C 130.887 257.374,130.574 257.512,130.298 257.406 C 130.022 257.300,129.498 257.561,129.134 257.986 C 128.770 258.411,128.284 258.758,128.053 258.758 C 127.823 258.758,127.192 259.167,126.653 259.667 C 126.113 260.167,125.672 260.397,125.672 260.179 C 125.672 259.960,125.035 260.437,124.257 261.238 C 123.479 262.040,122.675 262.640,122.471 262.572 C 122.266 262.504,121.877 262.863,121.605 263.371 C 121.334 263.878,120.959 264.199,120.773 264.084 C 120.338 263.815,118.953 265.056,119.215 265.480 C 119.324 265.657,119.237 265.823,119.021 265.848 C 118.805 265.873,118.503 265.915,118.350 265.941 C 117.782 266.036,107.136 276.856,107.132 277.343 C 107.129 277.622,106.534 278.234,105.810 278.703 C 105.085 279.173,104.560 279.757,104.643 280.001 C 104.725 280.245,104.322 280.795,103.745 281.222 C 103.169 281.650,102.810 282.112,102.948 282.250 C 103.086 282.388,102.834 282.757,102.387 283.069 C 101.941 283.382,101.576 283.861,101.576 284.133 C 101.576 284.541,100.831 285.079,100.267 285.079 C 100.192 285.079,99.850 284.078,99.507 282.854 C 99.164 281.631,98.735 280.630,98.554 280.630 C 98.373 280.630,98.330 280.213,98.458 279.703 C 98.595 279.157,98.531 278.777,98.302 278.777 C 98.089 278.777,97.801 278.026,97.664 277.108 C 97.526 276.191,97.295 275.440,97.149 275.440 C 97.004 275.440,96.958 274.940,97.048 274.328 C 97.138 273.716,97.059 273.216,96.873 273.216 C 96.687 273.216,96.603 272.632,96.686 271.918 C 96.769 271.205,96.694 270.621,96.519 270.621 C 96.344 270.621,96.258 269.787,96.329 268.768 C 96.399 267.748,96.316 266.914,96.143 266.914 C 95.774 266.914,95.712 249.765,96.079 249.486 C 96.217 249.381,96.384 247.256,96.450 244.762 C 96.517 242.269,96.673 240.227,96.797 240.226 C 96.921 240.224,97.237 237.887,97.498 235.032 C 97.759 232.178,98.129 229.842,98.319 229.842 C 98.510 229.842,98.631 229.217,98.589 228.452 C 98.546 227.688,98.619 226.810,98.751 226.501 C 98.884 226.193,99.031 224.735,99.079 223.261 C 99.127 221.788,99.274 220.580,99.405 220.578 C 99.537 220.576,99.763 219.240,99.907 217.609 C 100.052 215.978,100.341 214.643,100.550 214.643 C 100.782 214.643,100.857 213.990,100.742 212.975 C 100.630 211.978,100.705 211.307,100.928 211.307 C 101.151 211.307,101.226 210.636,101.113 209.639 C 101.000 208.635,101.075 207.970,101.301 207.970 C 101.536 207.970,101.605 207.069,101.484 205.561 C 101.370 204.144,101.436 203.151,101.644 203.151 C 101.838 203.151,101.967 202.108,101.929 200.834 C 101.892 199.560,101.950 198.267,102.058 197.961 C 102.448 196.860,102.611 183.934,102.308 178.128 C 102.138 174.866,101.995 171.169,101.991 169.913 C 101.987 168.657,101.820 167.529,101.621 167.406 C 101.414 167.277,101.349 166.313,101.469 165.148 C 101.619 163.697,101.552 163.114,101.235 163.114 C 100.990 163.114,100.902 162.933,101.038 162.713 C 101.365 162.184,100.851 156.758,100.495 156.978 C 100.344 157.071,100.003 155.571,99.739 153.643 C 99.474 151.716,99.154 150.138,99.026 150.138 C 98.899 150.137,98.779 149.353,98.759 148.396 C 98.740 147.438,98.531 146.591,98.296 146.513 C 98.061 146.434,97.868 146.050,97.868 145.660 C 97.868 145.269,97.728 144.949,97.557 144.949 C 97.385 144.949,97.136 148.494,97.004 152.827 " stroke="none" fill="#337c3b" fill-rule="evenodd"></path><path id="path3" d="M204.541 19.554 C 207.039 19.618,211.126 19.618,213.624 19.554 C 216.121 19.490,214.078 19.437,209.082 19.437 C 204.087 19.437,202.044 19.490,204.541 19.554 M195.278 19.910 C 195.739 19.999,196.406 19.995,196.761 19.903 C 197.115 19.810,196.738 19.737,195.922 19.741 C 195.107 19.745,194.817 19.821,195.278 19.910 M221.228 19.910 C 221.689 19.999,222.356 19.995,222.711 19.903 C 223.065 19.810,222.688 19.737,221.872 19.741 C 221.057 19.745,220.767 19.821,221.228 19.910 M191.010 20.274 C 191.367 20.367,191.951 20.367,192.308 20.274 C 192.665 20.181,192.373 20.105,191.659 20.105 C 190.945 20.105,190.653 20.181,191.010 20.274 M184.069 20.978 C 180.245 21.572,179.011 21.970,182.020 21.638 C 185.298 21.276,189.720 20.480,188.508 20.470 C 187.896 20.465,185.899 20.694,184.069 20.978 M232.437 21.123 C 234.782 21.505,237.034 21.809,237.442 21.800 C 238.780 21.770,233.424 20.828,230.769 20.626 C 228.756 20.473,229.129 20.584,232.437 21.123 M170.591 23.605 C 169.301 23.911,168.321 24.236,168.413 24.329 C 168.606 24.522,173.865 23.375,173.865 23.140 C 173.865 22.899,173.137 23.003,170.591 23.605 M244.333 23.140 C 244.583 23.390,249.584 24.497,249.743 24.337 C 249.823 24.258,248.805 23.921,247.481 23.589 C 245.099 22.990,244.031 22.838,244.333 23.140 M254.323 25.719 C 255.044 25.998,256.212 26.331,256.918 26.458 L 258.202 26.689 256.891 26.181 C 256.170 25.902,255.003 25.569,254.296 25.442 L 253.012 25.211 254.323 25.719 M160.890 26.305 C 159.768 26.680,159.018 27.001,159.222 27.019 C 159.425 27.037,160.593 26.736,161.816 26.349 C 163.040 25.963,163.791 25.642,163.485 25.636 C 163.179 25.630,162.011 25.931,160.890 26.305 M153.730 28.613 C 152.545 29.026,151.640 29.428,151.720 29.508 C 151.888 29.676,156.441 28.179,156.441 27.955 C 156.441 27.713,156.018 27.816,153.730 28.613 M261.724 27.930 C 261.724 28.170,266.265 29.688,266.445 29.508 C 266.524 29.429,265.869 29.106,264.990 28.790 C 262.810 28.006,261.724 27.720,261.724 27.930 M268.026 30.134 C 268.026 30.390,272.900 32.321,273.083 32.138 C 273.164 32.056,272.352 31.648,271.277 31.230 C 270.203 30.812,269.032 30.353,268.675 30.210 C 268.318 30.066,268.026 30.032,268.026 30.134 M147.359 31.146 C 146.532 31.553,146.286 31.774,146.803 31.647 C 147.886 31.380,149.755 30.431,149.212 30.423 C 149.008 30.420,148.174 30.746,147.359 31.146 M275.940 33.592 C 276.928 34.107,277.828 34.437,277.939 34.326 C 278.130 34.134,274.909 32.604,274.390 32.640 C 274.254 32.650,274.951 33.078,275.940 33.592 M141.242 33.735 C 140.528 34.126,140.111 34.445,140.315 34.445 C 140.519 34.445,141.270 34.126,141.983 33.735 C 142.697 33.344,143.114 33.025,142.910 33.025 C 142.706 33.025,141.956 33.344,141.242 33.735 M136.145 35.970 C 135.278 36.355,134.569 36.763,134.569 36.876 C 134.569 37.092,136.699 36.267,137.809 35.620 C 138.876 34.999,137.840 35.217,136.145 35.970 M280.348 35.422 C 280.498 35.577,281.333 36.021,282.201 36.409 C 283.070 36.797,283.614 36.947,283.411 36.742 C 283.207 36.536,282.373 36.092,281.557 35.754 C 280.741 35.416,280.197 35.267,280.348 35.422 M285.449 37.983 C 285.449 38.085,286.117 38.509,286.932 38.925 C 287.748 39.341,288.415 39.598,288.415 39.496 C 288.415 39.394,287.748 38.970,286.932 38.554 C 286.117 38.138,285.449 37.881,285.449 37.983 M289.713 40.318 C 289.917 40.517,290.918 41.134,291.937 41.690 C 292.956 42.245,293.457 42.421,293.049 42.081 C 292.211 41.381,289.140 39.758,289.713 40.318 M294.532 43.198 C 294.940 43.530,295.774 44.046,296.386 44.346 C 297.426 44.857,297.450 44.853,296.756 44.290 C 296.348 43.959,295.514 43.442,294.903 43.142 C 293.863 42.632,293.839 42.635,294.532 43.198 M298.054 45.305 C 298.360 45.607,299.277 46.230,300.093 46.689 C 301.343 47.393,301.434 47.409,300.673 46.786 C 299.436 45.774,297.314 44.573,298.054 45.305 M302.132 47.947 C 302.132 48.040,303.675 49.223,305.561 50.577 C 307.447 51.930,309.532 53.470,310.195 53.999 C 310.857 54.528,311.399 54.855,311.399 54.726 C 311.399 54.596,309.523 53.102,307.229 51.406 C 302.810 48.138,302.132 47.677,302.132 47.947 M311.770 54.946 C 311.770 55.053,313.894 56.955,316.490 59.174 C 321.875 63.775,329.771 71.600,333.895 76.422 C 336.567 79.547,337.644 80.593,336.488 78.942 C 333.922 75.279,322.469 63.771,315.663 58.017 C 311.877 54.816,311.770 54.732,311.770 54.946 M337.981 81.360 C 338.347 81.863,338.801 82.280,338.990 82.287 C 339.178 82.293,338.940 81.881,338.462 81.372 C 337.350 80.189,337.124 80.183,337.981 81.360 M340.019 83.874 C 340.516 84.537,341.640 86.038,342.517 87.210 C 343.394 88.383,344.195 89.342,344.298 89.342 C 344.400 89.342,344.320 89.133,344.120 88.879 C 343.920 88.624,342.808 87.122,341.650 85.542 C 340.492 83.962,339.448 82.669,339.330 82.669 C 339.212 82.669,339.522 83.211,340.019 83.874 M345.505 91.381 C 346.136 92.298,346.736 93.049,346.838 93.049 C 346.940 93.049,346.507 92.298,345.876 91.381 C 345.245 90.463,344.645 89.713,344.543 89.713 C 344.441 89.713,344.874 90.463,345.505 91.381 M347.786 94.924 C 348.251 95.751,348.868 96.624,349.157 96.864 C 349.446 97.104,349.146 96.428,348.489 95.360 C 347.082 93.073,346.566 92.753,347.786 94.924 M350.464 99.166 C 350.764 99.778,351.280 100.612,351.612 101.019 C 352.175 101.713,352.178 101.689,351.668 100.649 C 351.368 100.037,350.851 99.203,350.520 98.795 C 349.957 98.102,349.953 98.126,350.464 99.166 M353.120 103.614 C 353.676 104.634,354.293 105.635,354.492 105.839 C 355.052 106.411,353.429 103.341,352.729 102.502 C 352.389 102.095,352.565 102.595,353.120 103.614 M354.773 106.531 C 354.773 106.932,356.615 110.473,356.824 110.473 C 356.926 110.473,356.570 109.597,356.032 108.526 C 354.998 106.468,354.773 106.111,354.773 106.531 M357.774 112.512 C 357.774 112.715,358.258 113.800,358.851 114.921 C 359.443 116.043,359.928 116.793,359.928 116.589 C 359.928 116.386,359.443 115.301,358.851 114.180 C 358.258 113.058,357.774 112.308,357.774 112.512 M360.350 117.932 C 360.341 118.059,360.753 119.060,361.266 120.156 C 361.779 121.253,362.092 121.733,361.961 121.223 C 361.712 120.256,360.379 117.531,360.350 117.932 M362.784 123.818 C 362.908 124.328,363.324 125.412,363.706 126.228 C 364.089 127.044,364.297 127.294,364.168 126.786 C 364.039 126.277,363.623 125.192,363.245 124.376 C 362.866 123.560,362.659 123.309,362.784 123.818 M365.368 130.955 C 366.079 133.198,366.955 135.454,366.979 135.104 C 367.016 134.569,365.499 130.120,365.279 130.120 C 365.182 130.120,365.222 130.496,365.368 130.955 M367.994 139.010 C 368.115 139.719,368.438 140.970,368.711 141.790 C 369.183 143.211,369.196 143.221,368.985 141.991 C 368.863 141.282,368.541 140.031,368.268 139.211 C 367.795 137.790,367.783 137.780,367.994 139.010 M370.555 149.212 C 370.662 150.028,370.982 151.613,371.265 152.734 L 371.780 154.773 371.570 152.977 C 371.455 151.989,371.136 150.404,370.861 149.455 C 370.362 147.731,370.361 147.731,370.555 149.212 M372.696 161.260 C 372.819 162.178,373.096 164.680,373.312 166.821 C 373.528 168.962,373.856 172.048,374.043 173.679 L 374.381 176.645 374.201 172.938 C 373.991 168.619,373.012 160.091,372.692 159.795 C 372.571 159.684,372.573 160.343,372.696 161.260 M374.542 185.171 C 374.544 186.599,374.611 187.137,374.691 186.368 C 374.772 185.599,374.770 184.431,374.688 183.773 C 374.606 183.115,374.541 183.744,374.542 185.171 M374.103 194.254 C 374.068 195.171,373.709 198.997,373.307 202.754 C 372.905 206.512,372.636 209.645,372.708 209.717 C 373.075 210.085,374.542 195.612,374.320 193.812 C 374.192 192.778,374.158 192.848,374.103 194.254 M101.205 203.707 C 101.205 204.013,101.372 204.263,101.576 204.263 C 101.779 204.263,101.946 204.013,101.946 203.707 C 101.946 203.401,101.779 203.151,101.576 203.151 C 101.372 203.151,101.205 203.401,101.205 203.707 M370.555 220.045 C 370.206 221.803,369.989 223.310,370.073 223.394 C 370.157 223.478,370.525 222.122,370.890 220.380 C 371.256 218.639,371.472 217.132,371.372 217.032 C 371.272 216.931,370.904 218.287,370.555 220.045 M368.327 229.124 C 367.977 230.371,367.764 231.465,367.853 231.554 C 367.942 231.643,368.302 230.696,368.652 229.449 C 369.001 228.201,369.215 227.108,369.126 227.019 C 369.036 226.930,368.677 227.877,368.327 229.124 M46.009 234.476 C 46.005 234.884,46.238 235.718,46.526 236.330 L 47.050 237.442 46.825 236.330 C 46.701 235.718,46.468 234.884,46.308 234.476 L 46.015 233.735 46.009 234.476 M365.935 236.937 C 365.505 238.212,365.165 239.430,365.181 239.646 C 365.196 239.861,365.612 238.882,366.105 237.470 C 366.598 236.059,366.937 234.840,366.860 234.762 C 366.782 234.684,366.366 235.663,365.935 236.937 M48.428 241.705 C 48.553 242.215,48.883 243.133,49.162 243.744 C 49.568 244.637,49.623 244.674,49.441 243.930 C 49.316 243.420,48.985 242.502,48.707 241.891 C 48.300 240.997,48.245 240.961,48.428 241.705 M362.975 245.273 C 362.533 246.429,362.234 247.436,362.310 247.513 C 362.387 247.589,362.811 246.707,363.253 245.551 C 363.695 244.396,363.994 243.389,363.918 243.312 C 363.841 243.236,363.417 244.118,362.975 245.273 M50.556 247.266 C 50.881 248.470,52.001 250.995,52.145 250.851 C 52.229 250.767,51.872 249.801,51.352 248.704 C 50.832 247.607,50.473 246.960,50.556 247.266 M153.846 249.120 C 153.846 249.323,154.597 249.490,155.514 249.490 C 156.432 249.490,157.183 249.323,157.183 249.120 C 157.183 248.916,156.432 248.749,155.514 248.749 C 154.597 248.749,153.846 248.916,153.846 249.120 M360.754 250.652 C 360.315 251.708,360.017 252.633,360.092 252.708 C 360.166 252.783,360.587 251.980,361.026 250.924 C 361.465 249.867,361.763 248.942,361.688 248.867 C 361.613 248.793,361.193 249.596,360.754 250.652 M53.046 253.012 C 53.046 253.216,53.448 254.133,53.939 255.051 C 54.430 255.968,54.832 256.552,54.832 256.348 C 54.832 256.145,54.430 255.227,53.939 254.310 C 53.448 253.392,53.046 252.808,53.046 253.012 M358.184 256.357 C 357.741 257.270,357.455 258.017,357.551 258.017 C 357.802 258.017,359.300 255.006,359.132 254.838 C 359.054 254.760,358.628 255.444,358.184 256.357 M56.062 259.407 C 56.588 260.629,57.461 262.002,57.461 261.606 C 57.461 261.208,55.999 258.387,55.793 258.387 C 55.699 258.387,55.820 258.846,56.062 259.407 M355.960 260.805 C 355.516 261.718,355.231 262.465,355.326 262.465 C 355.577 262.465,357.075 259.454,356.908 259.286 C 356.830 259.209,356.403 259.892,355.960 260.805 M58.573 264.319 C 58.989 265.134,59.413 265.802,59.515 265.802 C 59.617 265.802,59.360 265.134,58.943 264.319 C 58.527 263.503,58.104 262.836,58.002 262.836 C 57.900 262.836,58.157 263.503,58.573 264.319 M353.312 265.663 C 352.875 266.402,352.597 267.086,352.693 267.182 C 352.789 267.278,353.216 266.673,353.642 265.838 C 354.601 263.958,354.385 263.844,353.312 265.663 M127.019 267.130 C 126.435 267.644,126.030 268.137,126.120 268.226 C 126.209 268.316,126.760 267.890,127.344 267.281 C 128.634 265.934,128.467 265.856,127.019 267.130 M60.998 268.582 C 61.553 269.601,62.171 270.602,62.370 270.806 C 62.929 271.379,61.307 268.308,60.607 267.470 C 60.267 267.062,60.442 267.563,60.998 268.582 M112.401 271.065 C 109.349 274.145,109.735 274.241,112.931 271.196 C 114.331 269.861,115.297 268.769,115.077 268.768 C 114.857 268.768,113.653 269.801,112.401 271.065 M351.021 269.601 C 350.778 270.060,350.314 270.846,349.989 271.348 C 349.625 271.910,349.578 272.149,349.866 271.972 C 350.351 271.673,351.962 268.767,351.642 268.767 C 351.544 268.767,351.264 269.143,351.021 269.601 M63.215 272.314 C 63.560 272.939,64.172 273.856,64.575 274.353 L 65.307 275.255 64.681 274.118 C 64.336 273.493,63.724 272.576,63.321 272.079 L 62.589 271.177 63.215 272.314 M347.865 274.791 C 347.322 275.658,346.395 277.076,345.803 277.943 C 345.212 278.809,344.814 279.518,344.920 279.518 C 345.081 279.518,348.099 275.182,348.983 273.679 C 349.718 272.432,348.722 273.421,347.865 274.791 M66.212 276.897 C 66.598 277.554,67.135 278.277,67.405 278.503 C 67.675 278.729,67.534 278.299,67.090 277.547 C 66.646 276.795,66.109 276.072,65.896 275.940 C 65.684 275.809,65.826 276.239,66.212 276.897 M68.180 279.796 C 68.381 280.153,68.984 280.945,69.520 281.557 C 70.258 282.399,70.202 282.241,69.290 280.908 C 68.100 279.168,67.472 278.539,68.180 279.796 M344.120 280.352 C 342.644 282.231,339.578 286.562,339.724 286.562 C 339.822 286.562,340.860 285.269,342.031 283.689 C 343.201 282.108,344.315 280.607,344.507 280.352 C 344.698 280.097,344.771 279.889,344.669 279.889 C 344.567 279.889,344.320 280.097,344.120 280.352 M71.121 283.888 C 71.579 284.531,72.145 285.175,72.379 285.320 C 72.614 285.465,72.431 285.058,71.974 284.415 C 71.517 283.773,70.951 283.129,70.716 282.984 C 70.482 282.839,70.664 283.246,71.121 283.888 M73.074 286.469 C 76.017 290.246,82.169 297.312,82.516 297.312 C 82.619 297.312,81.482 295.936,79.989 294.254 C 78.497 292.572,76.302 289.986,75.112 288.508 C 73.921 287.030,72.862 285.820,72.758 285.820 C 72.654 285.820,72.797 286.112,73.074 286.469 M336.826 289.991 C 335.454 291.673,335.029 292.298,335.882 291.381 C 337.664 289.462,339.710 286.932,339.479 286.932 C 339.392 286.932,338.199 288.309,336.826 289.991 M96.015 288.744 C 96.015 289.152,97.089 290.059,97.310 289.838 C 97.401 289.747,97.147 289.392,96.745 289.048 C 96.343 288.704,96.015 288.567,96.015 288.744 M325.709 301.889 C 317.144 310.550,316.795 311.111,324.864 303.250 C 328.661 299.550,334.718 293.165,334.330 293.270 C 334.258 293.290,330.378 297.169,325.709 301.889 M86.376 301.576 C 88.305 303.513,89.967 305.097,90.069 305.097 C 90.171 305.097,88.676 303.513,86.747 301.576 C 84.818 299.639,83.156 298.054,83.054 298.054 C 82.953 298.054,84.447 299.639,86.376 301.576 M91.937 306.753 C 93.891 308.928,106.024 318.584,106.024 317.965 C 106.024 317.881,104.481 316.662,102.595 315.255 C 100.709 313.848,97.331 311.128,95.088 309.210 C 92.845 307.291,91.427 306.186,91.937 306.753 M311.935 314.293 C 309.477 316.270,306.892 318.361,306.189 318.941 L 304.912 319.996 306.395 318.968 C 309.833 316.585,317.109 310.680,316.589 310.694 C 316.487 310.697,314.393 312.316,311.935 314.293 M106.395 318.222 C 106.395 318.324,107.146 318.924,108.063 319.555 C 108.981 320.186,109.731 320.619,109.731 320.518 C 109.731 320.416,108.981 319.816,108.063 319.184 C 107.146 318.553,106.395 318.120,106.395 318.222 M110.819 321.338 C 111.315 321.741,112.233 322.353,112.858 322.697 L 113.994 323.324 113.092 322.591 C 112.596 322.188,111.678 321.577,111.053 321.232 L 109.917 320.605 110.819 321.338 M302.274 321.472 C 300.577 322.750,300.363 323.054,301.697 322.295 C 302.842 321.644,303.939 320.667,303.524 320.667 C 303.425 320.667,302.862 321.029,302.274 321.472 M298.703 323.846 C 297.938 324.346,297.312 324.846,297.312 324.957 C 297.312 325.238,299.510 323.919,299.981 323.355 C 300.517 322.714,300.307 322.795,298.703 323.846 M114.736 323.815 C 115.564 324.503,117.913 325.773,117.331 325.218 C 117.127 325.023,116.293 324.489,115.477 324.031 C 114.662 323.573,114.328 323.476,114.736 323.815 M294.903 326.277 C 293.883 326.908,292.882 327.596,292.678 327.806 C 292.268 328.228,294.823 326.775,296.232 325.784 C 297.712 324.744,296.885 325.050,294.903 326.277 M118.443 326.039 C 119.294 326.749,123.082 328.722,122.521 328.162 C 122.317 327.959,121.149 327.259,119.926 326.606 C 118.703 325.954,118.035 325.698,118.443 326.039 M123.077 328.660 C 123.077 329.001,136.025 335.281,136.248 335.048 C 136.305 334.988,133.365 333.492,129.714 331.723 C 126.064 329.953,123.077 328.575,123.077 328.660 M289.805 329.219 C 288.311 330.008,288.020 330.340,289.064 330.066 C 289.673 329.906,291.782 328.459,291.381 328.477 C 291.279 328.481,290.570 328.815,289.805 329.219 M282.854 332.901 C 280.102 334.307,277.977 335.466,278.133 335.476 C 278.527 335.503,288.044 330.714,288.044 330.489 C 288.044 330.235,288.375 330.081,282.854 332.901 M274.791 336.619 C 273.925 337.004,273.216 337.411,273.216 337.525 C 273.216 337.741,275.345 336.916,276.456 336.269 C 277.523 335.648,276.487 335.866,274.791 336.619 M140.130 336.734 C 140.639 337.021,141.474 337.367,141.983 337.502 L 142.910 337.747 141.983 337.224 C 141.474 336.936,140.639 336.590,140.130 336.455 L 139.203 336.210 140.130 336.734 M269.219 338.924 C 268.143 339.337,267.328 339.741,267.410 339.823 C 267.582 339.995,271.733 338.485,271.733 338.250 C 271.733 338.006,271.339 338.112,269.219 338.924 M145.876 338.976 C 146.487 339.254,147.405 339.584,147.915 339.709 C 148.659 339.892,148.623 339.837,147.729 339.430 C 147.118 339.152,146.200 338.822,145.690 338.697 C 144.946 338.514,144.983 338.569,145.876 338.976 M154.567 342.010 C 156.085 342.493,157.394 342.822,157.476 342.740 C 157.658 342.559,152.827 341.042,152.232 341.093 C 151.998 341.113,153.049 341.526,154.567 342.010 M260.867 341.866 C 259.681 342.279,258.772 342.677,258.845 342.750 C 259.017 342.921,263.948 341.447,263.948 341.224 C 263.948 340.919,263.046 341.106,260.867 341.866 M159.778 343.415 C 159.778 343.702,163.870 344.821,164.342 344.663 C 164.574 344.586,163.933 344.319,162.919 344.070 C 161.905 343.822,160.783 343.531,160.426 343.424 C 160.070 343.318,159.778 343.314,159.778 343.415 M253.643 344.095 C 252.155 344.511,251.015 344.929,251.110 345.024 C 251.297 345.211,256.502 343.807,256.827 343.482 C 257.141 343.168,256.552 343.281,253.643 344.095 M173.000 346.769 C 174.053 347.042,175.721 347.359,176.707 347.474 L 178.499 347.684 176.460 347.164 C 175.338 346.879,173.670 346.561,172.753 346.459 L 171.084 346.273 173.000 346.769 M241.891 347.016 C 240.154 347.419,239.616 347.627,240.593 347.517 C 242.593 347.294,246.652 346.329,245.598 346.328 C 245.190 346.327,243.522 346.637,241.891 347.016 M183.539 348.630 C 183.783 348.874,193.524 349.959,194.995 349.906 C 195.709 349.880,193.707 349.558,190.547 349.189 C 184.370 348.468,183.291 348.382,183.539 348.630 M227.062 349.225 C 224.208 349.578,222.546 349.887,223.370 349.911 C 224.807 349.952,233.339 348.968,234.106 348.672 C 234.853 348.384,232.125 348.598,227.062 349.225 M198.059 350.220 C 198.622 350.305,199.456 350.303,199.912 350.215 C 200.368 350.127,199.907 350.057,198.888 350.060 C 197.868 350.062,197.495 350.134,198.059 350.220 M218.264 350.222 C 218.931 350.305,219.932 350.303,220.489 350.219 C 221.046 350.134,220.500 350.066,219.277 350.069 C 218.054 350.071,217.598 350.140,218.264 350.222 M207.507 350.596 C 208.373 350.674,209.791 350.674,210.658 350.596 C 211.525 350.518,210.816 350.454,209.082 350.454 C 207.349 350.454,206.640 350.518,207.507 350.596 " stroke="none" fill="#519658" fill-rule="evenodd"></path><path id="path4" d="M131.679 38.629 C 130.410 39.413,130.305 39.893,131.484 39.519 C 131.856 39.401,132.371 38.968,132.627 38.558 C 132.883 38.148,133.049 37.827,132.997 37.844 C 132.944 37.860,132.351 38.214,131.679 38.629 M120.482 94.492 C 120.482 94.674,120.746 94.925,121.068 95.048 C 121.975 95.396,122.065 95.321,121.462 94.717 C 120.831 94.087,120.482 94.007,120.482 94.492 M167.192 290.579 C 167.192 290.750,167.776 290.912,168.489 290.939 C 169.203 290.966,169.787 290.826,169.787 290.628 C 169.787 290.431,169.203 290.269,168.489 290.269 C 167.776 290.269,167.192 290.409,167.192 290.579 " stroke="none" fill="#7cae91" fill-rule="evenodd"></path></g></svg>