<svg xmlns="http://www.w3.org/2000/svg" xmlns:xlink="http://www.w3.org/1999/xlink" version="1.1" x="0px" y="0px" viewBox="0 0 64 80" style="enable-background:new 0 0 64 64;" xml:space="preserve"><g><path d="M54.823,28.114C54.927,27.758,55,27.389,55,27c0-0.922-0.316-1.8-0.876-2.5C54.684,23.8,55,22.922,55,22   c0-2.206-1.794-4-4-4c-0.138,0-0.275,0.007-0.411,0.021C49.811,16.223,48.017,15,46,15c-1.604,0-3.08,0.776-4.008,2.02   c-1.365-1.136-3.066-1.849-4.848-1.992v0c-0.778-0.062-1.559-0.006-2.325,0.141l0.398-2.385l-4.039,0.674   c-1.014,0.169-1.899,0.643-2.6,1.303C27.415,10.567,23.911,8,19,8h-2.04L17,12c0,1.771,0.301,3.23,0.807,4.429   c-0.848,0.274-1.658,0.665-2.383,1.183l-2.202,1.572C12.328,18.426,11.197,18,10,18c-2.757,0-5,2.243-5,5   c0,0.042,0,0.084,0.001,0.126C3.278,23.57,2,25.139,2,27c0,1.736,1.117,3.206,2.666,3.758C2.268,32.637,1,34.777,1,37v6   c0,7.29,13.617,13,31,13s31-5.71,31-13v-6C63,33.62,60.104,30.487,54.823,28.114z M46,17c1.421,0,2.658,1.013,2.94,2.408   l0.243,1.199l1.127-0.477C50.512,20.045,50.751,20,51,20c1.103,0,2,0.897,2,2c0,0.681-0.326,1.289-0.895,1.668L50.858,24.5   l1.247,0.832C52.674,25.711,53,26.319,53,27c0,1.079-0.86,1.955-1.93,1.993c-0.614-1.682-1.521-3.256-2.693-4.641l-4.962-5.864   C43.945,17.582,44.924,17,46,17z M34.411,17.332c0.831-0.269,1.704-0.383,2.569-0.31l0.082-0.997l-0.08,0.997   c1.754,0.141,3.411,0.991,4.547,2.333l5.321,6.288c2.032,2.402,3.15,5.456,3.15,8.601c0,1.701-0.32,3.365-0.953,4.945   C48.607,40.289,47.557,41,46.372,41h-0.286c-0.075,0-0.148-0.023-0.222-0.028c-0.484-0.07-0.864-0.47-0.865-0.973   c-0.002-4.104-1.464-8.092-4.116-11.225l-4.833-5.711c-1.083-1.28-2.498-2.192-4.062-2.673   C33.159,19.758,34.042,18.67,34.411,17.332z M32.376,25.352l-2.832-3.346c1.923,0.028,3.734,0.878,4.979,2.349l4.833,5.711   c2.299,2.717,3.579,6.16,3.632,9.715l-7.024-3.782C35.977,35.747,36,35.497,36,35.243C36,31.627,34.713,28.113,32.376,25.352z    M31.507,15.43l1.276-0.213l-0.212,1.276C32.329,17.945,31.084,19,29.611,19H29v-0.611C29,16.916,30.054,15.672,31.507,15.43z    M19,10c5.898,0,8,4.133,8,8v0.192c-1.245-0.895-3.008-2.443-4.105-4.639l-1.789,0.895c0.988,1.977,2.412,3.484,3.673,4.547   C22.877,18.938,19,18.078,19,11.99L18.98,10H19z M16.586,19.238c0.678-0.484,1.451-0.831,2.259-1.033   C20.409,20.188,22.746,21,25,21h1.075l4.774,5.643c2.032,2.402,3.15,5.456,3.15,8.601c0,1.701-0.32,3.365-0.953,4.945   C32.607,41.289,31.557,42,30.372,42h-0.286c-0.075,0-0.148-0.023-0.222-0.028c-0.484-0.07-0.864-0.47-0.865-0.973   c-0.002-4.104-1.464-8.092-4.116-11.225l-4.833-5.711c-1.511-1.787-3.665-2.862-5.979-3.029L16.586,19.238z M12,34   c0.551,0,1,0.448,1,1s-0.449,1-1,1s-1-0.448-1-1S11.449,34,12,34z M15,37c0.551,0,1,0.448,1,1s-0.449,1-1,1s-1-0.448-1-1   S14.449,37,15,37z M15.027,33.271C13.075,30.928,12,27.958,12,24.909c0-0.628,0.135-1.239,0.373-1.805   c2.285-0.369,4.652,0.48,6.151,2.25l4.833,5.711c2.299,2.717,3.579,6.16,3.632,9.715l-8.12-4.372   C17.393,35.614,16.1,34.559,15.027,33.271z M4,27c0-1.088,0.873-1.976,1.972-1.999l1.531,0.373L7.1,23.767   C7.034,23.502,7,23.244,7,23c0-1.654,1.346-3,3-3c0.603,0,1.172,0.193,1.659,0.519C10.604,21.722,10,23.28,10,24.909   c0,1.826,0.341,3.624,0.978,5.312C10.866,31.219,10.027,32,9,32c-1.103,0-2-0.897-2-2v-1H6C4.897,29,4,28.103,4,27z M5.817,32.398   C6.548,33.365,7.697,34,9,34c0.065,0,0.126-0.016,0.19-0.019C9.074,34.3,9,34.641,9,35c0,1.654,1.346,3,3,3c0,1.654,1.346,3,3,3   c1.585,0,2.874-1.239,2.98-2.798l9.591,5.164c0.705,0.379,1.493,0.586,2.292,0.62C29.909,43.988,29.953,44,30,44v-0.005   c0.029,0,0.057,0.005,0.085,0.005h0.286c2.008,0,3.787-1.205,4.533-3.069c0.363-0.907,0.637-1.839,0.82-2.789l7.846,4.224   c0.705,0.379,1.493,0.586,2.292,0.62C45.909,42.988,45.953,43,46,43v-0.005c0.029,0,0.057,0.005,0.085,0.005h0.286   c2.008,0,3.787-1.205,4.533-3.069C51.631,38.114,52,36.2,52,34.243c0-1.12-0.137-2.226-0.377-3.306   c0.84-0.133,1.597-0.517,2.178-1.088C58.384,31.868,61,34.452,61,37c0,5.963-13.28,11-29,11S3,42.963,3,37   C3,35.117,4.383,33.537,5.817,32.398z M61,43c0,5.963-13.28,11-29,11S3,48.963,3,43v-1.325C7.389,46.589,18.566,50,32,50   s24.611-3.411,29-8.325V43z"/><rect x="28.5" y="28.919" transform="matrix(0.3162 -0.9487 0.9487 0.3162 -8.7636 48.8412)" width="1.999" height="3.162"/><rect x="25.5" y="24.919" transform="matrix(0.3162 -0.9487 0.9487 0.3162 -7.0201 43.2601)" width="1.999" height="3.162"/><rect x="30.5" y="33.919" transform="matrix(0.3162 -0.9487 0.9487 0.3162 -12.1394 54.1574)" width="1.999" height="3.162"/><rect x="44.5" y="27.919" transform="matrix(0.3162 -0.9487 0.9487 0.3162 3.1255 63.3364)" width="1.999" height="3.162"/><rect x="41.5" y="23.919" transform="matrix(0.3162 -0.9487 0.9487 0.3162 4.8689 57.7552)" width="1.999" height="3.162"/><rect x="46.5" y="32.919" transform="matrix(0.3162 -0.9487 0.9487 0.3162 -0.2504 68.6526)" width="1.999" height="3.162"/></g><text x="0" y="79" fill="#000000" font-size="5px" font-weight="bold" font-family="'Helvetica Neue', Helvetica, Arial-Unicode, Arial, Sans-serif">Created by Eucalyp</text><text x="0" y="84" fill="#000000" font-size="5px" font-weight="bold" font-family="'Helvetica Neue', Helvetica, Arial-Unicode, Arial, Sans-serif">from the Noun Project</text></svg>