<svg xmlns="http://www.w3.org/2000/svg" xmlns:xlink="http://www.w3.org/1999/xlink" version="1.1" x="0px" y="0px" viewBox="0 0 100 125" style="enable-background:new 0 0 100 100;" xml:space="preserve"><path d="M31.2469482,28.4912109c0.4177856-0.7428589,0.7717285-1.0665283,0.8082275-1.0982056  c0.6420898-0.4975586,0.7724609-1.4199219,0.2866211-2.0766602c-0.4926758-0.6669922-1.4326172-0.8071289-2.0976563-0.3144531  c-0.2155151,0.1592407-1.3413696,1.0826416-2.2533569,3.3421631C14.1770029,28.5109863,3.8018198,37.9287109,3.8066416,50.3671265  c-0.0024414,6.46875,2.75,12.9287109,7.5517578,17.7236328c4.6518545,4.6455078,10.6547842,7.2011719,16.9033203,7.2011719  c0.0292969,0,0.0585938,0.0009766,0.0859375,0c6.253418,0,12.2568359-2.5566406,16.9077148-7.2001953  c4.8017578-4.7949219,7.5541992-11.2558594,7.5512695-17.7236328  C52.8120728,38.7341919,43.7323608,29.7425537,31.2469482,28.4912109z M49.8066406,50.368103  c0.0029297,5.6777344-2.4287109,11.3642578-6.6708984,15.6005859c-4.0844727,4.078125-9.3349609,6.3232422-14.7939453,6.3232422  c-0.0126953,0-0.0253906,0-0.0380859,0c-0.012207,0-0.0239258,0-0.0366211,0c-5.453125,0-10.7041016-2.2451172-14.7885733-6.3242188  c-4.2421875-4.2363281-6.6743164-9.921875-6.671875-15.6005859c-0.0042725-10.6520386,8.4813232-18.4697876,20.3248291-18.980896  c-0.2311401,1.272522-0.3630371,2.7850952-0.3469238,4.5490723c-0.9314575-0.0741577-1.5777588-0.2035522-1.8914795-0.3030396  c-0.2739258-0.3583984-0.7060547-0.5893555-1.1918945-0.5893555c-0.8286133,0-1.5,0.6713867-1.5,1.5  c0,0.6064453,0,2.4516602,6.1054688,2.4516602c6.1049805,0,6.1049805-1.8452148,6.1049805-2.4516602  c0-0.8286133-0.6713867-1.5-1.5-1.5c-0.4858398,0-0.9179688,0.230957-1.1918945,0.5893555  c-0.3192139,0.1011353-0.9816284,0.2331543-1.9379272,0.3065796c-0.0184326-1.8518066,0.1519165-3.3417358,0.4109497-4.5220947  c11.4758301,0.7904053,19.6189575,8.5151367,19.6138916,18.9503784  C49.8066406,50.3676147,49.8066406,50.368103,49.8066406,50.368103z M45.9970703,55.6376343  c-0.1420898,0.4599609-0.3017578,0.9169922-0.4799805,1.3691406c-0.2329102,0.5898438-0.7978516,0.9492188-1.3959961,0.9492188  c-0.1831055,0-0.3691406-0.0332031-0.5498047-0.1044922c-0.7705078-0.3037109-1.1489258-1.1748047-0.8452148-1.9462891  c0.1499023-0.3798828,0.2851563-0.7646484,0.4047852-1.1523438c0.2446289-0.7919922,1.0854492-1.2304688,1.8754883-0.9912109  C45.7978516,54.0067749,46.2416992,54.8466187,45.9970703,55.6376343z M43.7929688,41.2269897  c0.184082,0.2397461,0.3613281,0.4853516,0.53125,0.7368164c1.6484375,2.4458008,2.4833984,5.2724609,2.4819336,8.4018555  c-0.0004883,0.8276367-0.671875,1.4995117-1.5,1.4995117c-0.0004883,0-0.0004883,0-0.0009766,0  c-0.828125-0.0009766-1.4995117-0.6728516-1.4990234-1.5014648c0.0014648-2.5205078-0.6611328-4.7822266-1.96875-6.722168  c-0.1342773-0.1987305-0.2744141-0.3935547-0.4213867-0.5834961c-0.5053711-0.65625-0.3833008-1.5981445,0.2729492-2.1035156  C42.3461914,40.4486694,43.2871094,40.571228,43.7929688,41.2269897z M68.3164063,34.999939c0-0.8286133,0.671875-1.5,1.5-1.5  h24.8769531c0.828125,0,1.5,0.6713867,1.5,1.5s-0.671875,1.5-1.5,1.5H69.8164063  C68.9882813,36.499939,68.3164063,35.8285522,68.3164063,34.999939z M66.1837158,34.9998169c0,1.6568604-1.3431396,3-3,3  s-3-1.3431396-3-3s1.3431396-3,3-3S66.1837158,33.3429565,66.1837158,34.9998169z M96.1933594,49.999939  c0,0.8286133-0.671875,1.5-1.5,1.5H69.8164063c-0.828125,0-1.5-0.6713867-1.5-1.5s0.671875-1.5,1.5-1.5h24.8769531  C95.5214844,48.499939,96.1933594,49.1713257,96.1933594,49.999939z M66.1837158,49.999939c0,1.6568604-1.3431396,3-3,3  s-3-1.3431396-3-3s1.3431396-3,3-3S66.1837158,48.3430786,66.1837158,49.999939z M96.1933594,64.999939  c0,0.828125-0.671875,1.5-1.5,1.5H69.8164063c-0.828125,0-1.5-0.671875-1.5-1.5s0.671875-1.5,1.5-1.5h24.8769531  C95.5214844,63.499939,96.1933594,64.171814,96.1933594,64.999939z M66.1837158,65.000061c0,1.6568604-1.3431396,3-3,3  s-3-1.3431396-3-3s1.3431396-3,3-3S66.1837158,63.3432007,66.1837158,65.000061z"/><text x="0" y="115" fill="#000000" font-size="5px" font-weight="bold" font-family="'Helvetica Neue', Helvetica, Arial-Unicode, Arial, Sans-serif">Created by Llisole</text><text x="0" y="120" fill="#000000" font-size="5px" font-weight="bold" font-family="'Helvetica Neue', Helvetica, Arial-Unicode, Arial, Sans-serif">from the Noun Project</text></svg>