<svg xmlns="http://www.w3.org/2000/svg" xmlns:xlink="http://www.w3.org/1999/xlink" version="1.1" x="0px" y="0px" viewBox="0 0 100 125" style="enable-background:new 0 0 100 100;" xml:space="preserve"><path d="M60.3891602,11v24.3577271c-3.2574463,0.1258545-5.8706055,2.8076782-5.8706055,6.0953979v17.09375  c0,3.2872314,2.6131592,5.9690552,5.8706055,6.0949097V89c0,0.5522461,0.4477539,1,1,1H81.159668c0.5522461,0,1-0.4477539,1-1  V64.6268311c3.1187134-0.270813,5.5751953-2.8922729,5.5751953-6.0799561V51h1.2773438c0.5522461,0,1-0.4477539,1-1  s-0.4477539-1-1-1h-1.2773438v-7.546875c0-3.1881714-2.4564819-5.8096313-5.5751953-6.0804443V11c0-0.5522461-0.4477539-1-1-1  H61.3891602C60.8369141,10,60.3891602,10.4477539,60.3891602,11z M62.3891602,88V64.6538086H80.159668V88H62.3891602z   M85.7348633,41.453125v17.09375c0,2.2646484-1.8422852,4.1069336-4.1069336,4.1069336H60.6259766  c-2.2646484,0-4.1074219-1.8422852-4.1074219-4.1069336v-17.09375c0-2.2646484,1.8427734-4.1074219,4.1074219-4.1074219h21.0019531  C83.8925781,37.3457031,85.7348633,39.1884766,85.7348633,41.453125z M80.159668,12v23.3457031H62.3891602V12H80.159668z"/><path d="M77.1171875,42.1196289c-2.09375-0.8535156-4.2602539-0.3261719-5.8144531,1.3300781  c-1.5551758-1.65625-3.7226562-2.1835938-5.8149414-1.3300781c-2.2104492,0.9013672-4.2143555,3.5092773-3.3916016,7.1049805  c1.3325195,5.8242188,8.5244141,8.8105469,8.8295898,8.9345703c0.1210938,0.0493164,0.2490234,0.0737305,0.3769531,0.0737305  s0.2558594-0.0244141,0.3769531-0.0737305c0.3051758-0.1240234,7.496582-3.1103516,8.8295898-8.9345703  C81.3320312,45.6289062,79.3276367,43.0209961,77.1171875,42.1196289z M78.5600586,48.7783203  c-0.9448242,4.1269531-5.8515625,6.6992188-7.2583008,7.359375c-1.4072266-0.6577148-6.309082-3.2192383-7.2563477-7.359375  c-0.5620117-2.4575195,0.7451172-4.2143555,2.1972656-4.8066406c0.3706055-0.1508789,0.7866211-0.2416992,1.2211914-0.2416992  c1.0180664,0,2.1347656,0.4985352,2.9863281,1.8886719c0.3632812,0.5927734,1.3413086,0.5932617,1.7055664-0.0004883  c1.2143555-1.9833984,2.96875-2.1503906,4.206543-1.6464844C77.8149414,44.5639648,79.1220703,46.3208008,78.5600586,48.7783203z"/><path d="M14.6591797,90h27.496582c2.5756836,0,4.6713867-2.0952148,4.6713867-4.6708984V40.765625  c0-2.1057129-1.409729-3.8693848-3.3282471-4.4505615c0.260437-0.4790039,0.4219971-1.0192261,0.4219971-1.6016846v-3.8413086  c0-1.6836548-1.2405396-3.0721436-2.8535156-3.3275757v-2.1499634c0-3.6289062-2.9526367-6.5810547-6.581543-6.5810547h-0.1533203  V12h0.8095703c0.5522461,0,1-0.4477539,1-1s-0.4477539-1-1-1h-13.46875c-0.5522461,0-1,0.4477539-1,1s0.4477539,1,1,1h0.809082  v6.8134766h-0.1533203c-3.6289062,0-6.581543,2.9521484-6.581543,6.5810547v2.1500244  c-1.612793,0.2556152-2.8535156,1.6439819-2.8535156,3.3275146v3.8413086c0,0.5717773,0.1497192,1.1193848,0.4120483,1.6047974  c-1.9133911,0.5843506-3.3182983,2.3453979-3.3182983,4.4474487v44.5634766C9.987793,87.9047852,12.0834961,90,14.6591797,90z   M42.1557617,88h-27.496582c-1.4731445,0-2.6713867-1.1982422-2.6713867-2.6708984V52.0170898h32.8393555v33.3120117  C44.8271484,86.8017578,43.6289062,88,42.1557617,88z M24.4824219,12h7.8500977v6.8134766h-7.8500977V12z M22.3291016,20.8134766  h12.1567383c2.5263672,0,4.581543,2.0551758,4.581543,4.5810547v2.0966797H17.7475586v-2.0966797  C17.7475586,22.8686523,19.8027344,20.8134766,22.3291016,20.8134766z M14.894043,30.8720703  c0-0.7612305,0.6196289-1.3808594,1.3813477-1.3808594h24.2646484c0.7612305,0,1.3808594,0.6196289,1.3808594,1.3808594v3.8413086  c0,0.7617188-0.6196289,1.3813477-1.3808594,1.3813477H16.2753906c-0.2348633,0-0.4575195-0.0566406-0.6616211-0.168457  c-0.4438477-0.2426758-0.7197266-0.7075195-0.7197266-1.2128906V30.8720703z M14.6591797,38.0947266h27.496582  c1.4731445,0,2.6713867,1.1982422,2.6713867,2.6708984v9.2514648H11.987793V40.765625  C11.987793,39.2929688,13.1860352,38.0947266,14.6591797,38.0947266z"/><text x="0" y="115" fill="#000000" font-size="5px" font-weight="bold" font-family="'Helvetica Neue', Helvetica, Arial-Unicode, Arial, Sans-serif">Created by Made</text><text x="0" y="120" fill="#000000" font-size="5px" font-weight="bold" font-family="'Helvetica Neue', Helvetica, Arial-Unicode, Arial, Sans-serif">from the Noun Project</text></svg>