<svg xmlns="http://www.w3.org/2000/svg" xmlns:xlink="http://www.w3.org/1999/xlink" version="1.1" x="0px" y="0px" viewBox="0 0 100 125" style="enable-background:new 0 0 100 100;" xml:space="preserve"><path d="M68.7810059,34.995533c0-0.8286133,0.671875-1.5,1.5-1.5h24.8759766c0.828125,0,1.5,0.6713867,1.5,1.5  s-0.671875,1.5-1.5,1.5H70.2810059C69.4528809,36.495533,68.7810059,35.8241463,68.7810059,34.995533z M63.647522,31.995472  c-1.6568604,0-3,1.3431396-3,3s1.3431396,3,3,3s3-1.3431396,3-3S65.3043823,31.995472,63.647522,31.995472z M95.1569824,48.495533  H70.2810059c-0.828125,0-1.5,0.6713867-1.5,1.5c0,0.828125,0.671875,1.5,1.5,1.5h24.8759766c0.828125,0,1.5-0.671875,1.5-1.5  C96.6569824,49.1669197,95.9851074,48.495533,95.1569824,48.495533z M63.647522,46.995594c-1.6568604,0-3,1.3431396-3,3  c0,1.6567993,1.3431396,3,3,3s3-1.3432007,3-3C66.647522,48.3387337,65.3043823,46.995594,63.647522,46.995594z   M95.1569824,63.495533H70.2810059c-0.828125,0-1.5,0.6718788-1.5,1.5000038s0.671875,1.5,1.5,1.5h24.8759766  c0.828125,0,1.5-0.671875,1.5-1.5S95.9851074,63.495533,95.1569824,63.495533z M63.647522,61.9957161  c-1.6568604,0-3,1.3431396-3,3.0000038c0,1.6567993,1.3431396,3,3,3s3-1.3432007,3-3  C66.647522,63.3388557,65.3043823,61.9957161,63.647522,61.9957161z M53.2702637,40.0634041  c0,3.0620117-2.4912109,5.5527344-5.5527344,5.5527344c-3.0620117,0-5.5527344-2.4907227-5.5527344-5.5527344  s2.4907227-5.5527344,5.5527344-5.5527344C50.7790527,34.5106697,53.2702637,37.0013924,53.2702637,40.0634041z   M50.2702637,40.0634041c0-1.4077148-1.1455078-2.5527344-2.5527344-2.5527344  c-1.4077148,0-2.5527344,1.1450195-2.5527344,2.5527344s1.1450195,2.5527344,2.5527344,2.5527344  C49.1247559,42.6161385,50.2702637,41.4711189,50.2702637,40.0634041z M8.1306152,38.6478767  c-2.6396484,0-4.7875977-2.1479492-4.7875977-4.7880859c0-2.6396484,2.1479492-4.7875977,4.7875977-4.7875977  c2.6401367,0,4.7880859,2.1479492,4.7880859,4.7875977C12.9187012,36.4999275,10.770752,38.6478767,8.1306152,38.6478767z   M8.1306152,35.6478767c0.9858398,0,1.7880859-0.8022461,1.7880859-1.7880859s-0.8022461-1.7875977-1.7880859-1.7875977  s-1.7875977,0.8017578-1.7875977,1.7875977S7.1447754,35.6478767,8.1306152,35.6478767z M52.1774902,60.2601814  c0.0009766,3.8584023-1.6376953,7.7089882-4.4960938,10.5634804c-2.7744141,2.7705078-6.3598633,4.2949219-10.0986328,4.2949219  c-0.0175781,0-0.0341797-0.0009766-0.0517578,0c-0.5427246,0-1.0806274-0.041687-1.6151123-0.1052856  c-2.6511841,2.7365112-6.3562012,4.446106-10.4581299,4.446106c-8.0366211,0-14.5751953-6.5380859-14.5751953-14.5751953  c0-0.828125,0.6713867-1.5000038,1.5-1.5000038h10.925354c-0.2338867-1.0288696-0.3652344-2.0761108-0.3648071-3.1259766  c-0.0028687-7.3253784,5.9745483-12.8910522,13.9973145-13.180603c0.5304565-1.1328735,1.1368408-1.6517944,1.3415527-1.8032837  c0.6650391-0.4916992,1.6049805-0.3515625,2.0976563,0.3149414c0.3834229,0.5187988,0.3677368,1.1937256,0.0343628,1.7035522  C47.2901001,48.4398079,52.1800537,53.6332283,52.1774902,60.2601814z M20.0747681,66.3842087  c0.6578979,2.3569946,2.8191528,4.09375,5.3829956,4.09375s4.7250977-1.7367554,5.3829956-4.09375H20.0747681z   M36.9362793,66.3842087h-3.0250244c-0.7126465,4.0244751-4.2276611,7.09375-8.4534912,7.09375  s-7.7408447-3.0692749-8.4534912-7.09375H13.979248c0.737793,5.6767578,5.6044922,10.0751953,11.4785156,10.0751953  S36.1984863,72.0609665,36.9362793,66.3842087z M49.1774902,60.2582283  c0.0026855-5.4187012-4.1245728-9.4721069-10.0147705-10.1104126c-0.0513916,0.3425293-0.0905762,0.7226563-0.1086426,1.1521606  c0.0342407-0.0064697,0.0776367-0.0130005,0.1063232-0.0192871c0.2680664-0.2519531,0.6289063-0.40625,1.0258789-0.40625  c0.8286133,0,1.5,0.671875,1.5,1.5c0,1.8310547-2.3549805,2.0429688-4.1264648,2.0429688  c-1.7709961,0-4.1259766-0.2119141-4.1259766-2.0429688c0-0.828125,0.6713867-1.5,1.5-1.5  c0.3969727,0,0.7578125,0.1542969,1.0258789,0.40625c0.026123,0.0056763,0.0661011,0.0116577,0.0968018,0.0175171  c0.013916-0.4144897,0.0383911-0.8100586,0.0796509-1.1735229c-5.9839478,0.5709229-10.1953125,4.656189-10.1930542,10.1335449  c-0.0004883,1.0526123,0.164978,2.1036987,0.4610596,3.1259766H38.532959c0.8286133,0,1.5,0.6718788,1.5,1.5000038  c0,2.6224365-0.7058716,5.0787964-1.9230347,7.2069702c2.7511597-0.1375122,5.3778076-1.3192749,7.4518433-3.390564  c2.2993164-2.2958984,3.6166992-5.3720741,3.6157227-8.4404335C49.1774902,60.2592049,49.1774902,60.2592049,49.1774902,60.2582283z   M15.0588379,59.3207283c-1.1455078,1.2001953-2.6704102,1.8134766-4.2055664,1.8134766  c-1.2758789,0-2.5581055-0.4238281-3.6352539-1.2841797c-2.3730469-1.8955078-2.8950195-5.2333984-1.2148438-7.7626953  l12.7993164-19.2744141v-0.0004883c0.4995117-0.7519531,1.2973633-1.2631836,2.1894531-1.402832  c0.8916016-0.1391602,1.809082,0.1030273,2.5141602,0.6665039l0.4507446,0.3601074l1.2450562-1.6740723  c-0.3999023-0.2666016-0.7661133-0.590332-1.0913086-0.9672852c-1.4916992-1.7280273-1.6953125-4.2929688-0.4946289-6.2373047  c1.3916016-2.2524414,4.1474609-3.1240234,6.5463867-2.1264648c2.0947266-1.3730469,5.0810547-1.1469727,7.2670898,0.6000977  c2.1875,1.746582,3.0664063,4.6074219,2.1904297,6.9550781c1.5009766,2.1181641,1.262207,4.9956055-0.6225586,6.8491211  c-1.6303711,1.6035156-4.1772461,1.9746094-6.1933594,0.902832c-0.4414063-0.234375-0.8398438-0.5205078-1.1889648-0.8530273  l-1.3579712,1.5846558l0.4507446,0.3601685c0.7055664,0.5634766,1.1455078,1.4033203,1.2060547,2.3041992  c0.0610352,0.9008789-0.2617188,1.7919922-0.8847656,2.4458008L15.0588379,59.3207283z M26.3815918,27.8348885  c0.4672852,0.5410156,1.0244141,0.7255859,1.409668,0.7851563c0.5200195,0.0805664,0.9594727,0.4267578,1.1591797,0.9135742  c0.1992188,0.4868164,0.1293945,1.0419922-0.1845703,1.4638672l-2.4638062,3.3125l1.6096191,1.2860718l2.6862183-3.1347046  c0.3422852-0.3989258,0.8696289-0.5864258,1.3876953-0.503418c0.5185547,0.0874023,0.9536133,0.4394531,1.1469727,0.9287109  c0.1430664,0.3632813,0.4462891,0.8662109,1.0786133,1.2021484c0.8579102,0.4560547,1.9868164,0.2919922,2.6821289-0.3920898  c0.8647461-0.8500977,0.9360352-2.1933594,0.1655273-3.1240234h-0.0004883  c-0.574707-0.6948242-0.7001953-1.6635742-0.3193359-2.46875c0.5537109-1.1713867,0.0571289-2.7397461-1.1816406-3.7290039  c-1.2387695-0.9887695-2.878418-1.1279297-3.8979492-0.3291016c-0.7021484,0.5498047-1.6733398,0.6401367-2.4770508,0.234375  c-1.0805664-0.546875-2.3759766-0.1796875-3.0136719,0.8535156C25.6564941,25.9628181,25.7463379,27.0985603,26.3815918,27.8348885z   M12.8879395,57.2504158l11.678894-12.2427368l-2.1495972-1.7172241c-0.6474609-0.5170898-0.7529297-1.4609375-0.2358398-2.1079102  c0.5170898-0.6479492,1.4604492-0.7524414,2.1079102-0.2358398l2.3560181,1.8821411l2.2128296-2.3196411  c0.0576172-0.0605469,0.065918-0.1274414,0.0625-0.1728516c-0.0029297-0.0454102-0.0200195-0.1108398-0.0849609-0.1621094  l-7.2016602-5.7539063c-0.0649414-0.0522461-0.1352539-0.0546875-0.1777344-0.046875  c-0.0454102,0.0068359-0.1088867,0.0297852-0.1547852,0.0991211v-0.0004883l-7.1013184,10.6943359l1.701416,1.3588867  c0.6474609,0.5166016,0.7529297,1.4604492,0.2358398,2.1079102c-0.2958984,0.3710938-0.7324219,0.5639648-1.1728516,0.5639648  c-0.328125,0-0.6586914-0.1069336-0.9350586-0.328125l-1.4950562-1.1940918l-4.0322876,6.0725098  c-0.8134766,1.2246094-0.5605469,2.8408203,0.5883789,3.7587891C10.2404785,58.4252205,11.8723145,58.3148689,12.8879395,57.2504158  z"/><text x="0" y="115" fill="#000000" font-size="5px" font-weight="bold" font-family="'Helvetica Neue', Helvetica, Arial-Unicode, Arial, Sans-serif">Created by Llisole</text><text x="0" y="120" fill="#000000" font-size="5px" font-weight="bold" font-family="'Helvetica Neue', Helvetica, Arial-Unicode, Arial, Sans-serif">from the Noun Project</text></svg>